<?xml version="1.0" encoding="utf-8" standalone="no"?>
<!DOCTYPE svg PUBLIC "-//W3C//DTD SVG 1.1//EN"
  "http://www.w3.org/Graphics/SVG/1.1/DTD/svg11.dtd">
<!-- Created with matplotlib (http://matplotlib.org/) -->
<svg height="360pt" version="1.1" viewBox="0 0 1296 360" width="1296pt" xmlns="http://www.w3.org/2000/svg" xmlns:xlink="http://www.w3.org/1999/xlink">
 <defs>
  <style type="text/css">
*{stroke-linecap:butt;stroke-linejoin:round;}
  </style>
 </defs>
 <g id="figure_1">
  <g id="patch_1">
   <path d="M 0 360 
L 1296 360 
L 1296 0 
L 0 0 
z
" style="fill:#ffffff;"/>
  </g>
  <g id="axes_1">
   <g id="patch_2">
    <path d="M 162 315 
L 1166.4 315 
L 1166.4 43.2 
L 162 43.2 
z
" style="fill:#ffffff;"/>
   </g>
   <g id="matplotlib.axis_1">
    <g id="xtick_1">
     <g id="line2d_1">
      <path clip-path="url(#p625237f48f)" d="M 207.654545 315 
L 207.654545 43.2 
" style="fill:none;stroke:#b0b0b0;stroke-linecap:square;stroke-width:0.8;"/>
     </g>
     <g id="line2d_2">
      <defs>
       <path d="M 0 0 
L 0 3.5 
" id="m6aba68d3c2" style="stroke:#000000;stroke-width:0.8;"/>
      </defs>
      <g>
       <use style="stroke:#000000;stroke-width:0.8;" x="207.654545" xlink:href="#m6aba68d3c2" y="315"/>
      </g>
     </g>
     <g id="text_1">
      <!-- 0 -->
      <defs>
       <path d="M 31.78125 66.40625 
Q 24.171875 66.40625 20.328125 58.90625 
Q 16.5 51.421875 16.5 36.375 
Q 16.5 21.390625 20.328125 13.890625 
Q 24.171875 6.390625 31.78125 6.390625 
Q 39.453125 6.390625 43.28125 13.890625 
Q 47.125 21.390625 47.125 36.375 
Q 47.125 51.421875 43.28125 58.90625 
Q 39.453125 66.40625 31.78125 66.40625 
z
M 31.78125 74.21875 
Q 44.046875 74.21875 50.515625 64.515625 
Q 56.984375 54.828125 56.984375 36.375 
Q 56.984375 17.96875 50.515625 8.265625 
Q 44.046875 -1.421875 31.78125 -1.421875 
Q 19.53125 -1.421875 13.0625 8.265625 
Q 6.59375 17.96875 6.59375 36.375 
Q 6.59375 54.828125 13.0625 64.515625 
Q 19.53125 74.21875 31.78125 74.21875 
z
" id="DejaVuSans-30"/>
      </defs>
      <g transform="translate(201.292045 337.196875)scale(0.2 -0.2)">
       <use xlink:href="#DejaVuSans-30"/>
      </g>
     </g>
    </g>
    <g id="xtick_2">
     <g id="line2d_3">
      <path clip-path="url(#p625237f48f)" d="M 392.117355 315 
L 392.117355 43.2 
" style="fill:none;stroke:#b0b0b0;stroke-linecap:square;stroke-width:0.8;"/>
     </g>
     <g id="line2d_4">
      <g>
       <use style="stroke:#000000;stroke-width:0.8;" x="392.117355" xlink:href="#m6aba68d3c2" y="315"/>
      </g>
     </g>
     <g id="text_2">
      <!-- 20 -->
      <defs>
       <path d="M 19.1875 8.296875 
L 53.609375 8.296875 
L 53.609375 0 
L 7.328125 0 
L 7.328125 8.296875 
Q 12.9375 14.109375 22.625 23.890625 
Q 32.328125 33.6875 34.8125 36.53125 
Q 39.546875 41.84375 41.421875 45.53125 
Q 43.3125 49.21875 43.3125 52.78125 
Q 43.3125 58.59375 39.234375 62.25 
Q 35.15625 65.921875 28.609375 65.921875 
Q 23.96875 65.921875 18.8125 64.3125 
Q 13.671875 62.703125 7.8125 59.421875 
L 7.8125 69.390625 
Q 13.765625 71.78125 18.9375 73 
Q 24.125 74.21875 28.421875 74.21875 
Q 39.75 74.21875 46.484375 68.546875 
Q 53.21875 62.890625 53.21875 53.421875 
Q 53.21875 48.921875 51.53125 44.890625 
Q 49.859375 40.875 45.40625 35.40625 
Q 44.1875 33.984375 37.640625 27.21875 
Q 31.109375 20.453125 19.1875 8.296875 
z
" id="DejaVuSans-32"/>
      </defs>
      <g transform="translate(379.392355 337.196875)scale(0.2 -0.2)">
       <use xlink:href="#DejaVuSans-32"/>
       <use x="63.623047" xlink:href="#DejaVuSans-30"/>
      </g>
     </g>
    </g>
    <g id="xtick_3">
     <g id="line2d_5">
      <path clip-path="url(#p625237f48f)" d="M 576.580165 315 
L 576.580165 43.2 
" style="fill:none;stroke:#b0b0b0;stroke-linecap:square;stroke-width:0.8;"/>
     </g>
     <g id="line2d_6">
      <g>
       <use style="stroke:#000000;stroke-width:0.8;" x="576.580165" xlink:href="#m6aba68d3c2" y="315"/>
      </g>
     </g>
     <g id="text_3">
      <!-- 40 -->
      <defs>
       <path d="M 37.796875 64.3125 
L 12.890625 25.390625 
L 37.796875 25.390625 
z
M 35.203125 72.90625 
L 47.609375 72.90625 
L 47.609375 25.390625 
L 58.015625 25.390625 
L 58.015625 17.1875 
L 47.609375 17.1875 
L 47.609375 0 
L 37.796875 0 
L 37.796875 17.1875 
L 4.890625 17.1875 
L 4.890625 26.703125 
z
" id="DejaVuSans-34"/>
      </defs>
      <g transform="translate(563.855165 337.196875)scale(0.2 -0.2)">
       <use xlink:href="#DejaVuSans-34"/>
       <use x="63.623047" xlink:href="#DejaVuSans-30"/>
      </g>
     </g>
    </g>
    <g id="xtick_4">
     <g id="line2d_7">
      <path clip-path="url(#p625237f48f)" d="M 761.042975 315 
L 761.042975 43.2 
" style="fill:none;stroke:#b0b0b0;stroke-linecap:square;stroke-width:0.8;"/>
     </g>
     <g id="line2d_8">
      <g>
       <use style="stroke:#000000;stroke-width:0.8;" x="761.042975" xlink:href="#m6aba68d3c2" y="315"/>
      </g>
     </g>
     <g id="text_4">
      <!-- 60 -->
      <defs>
       <path d="M 33.015625 40.375 
Q 26.375 40.375 22.484375 35.828125 
Q 18.609375 31.296875 18.609375 23.390625 
Q 18.609375 15.53125 22.484375 10.953125 
Q 26.375 6.390625 33.015625 6.390625 
Q 39.65625 6.390625 43.53125 10.953125 
Q 47.40625 15.53125 47.40625 23.390625 
Q 47.40625 31.296875 43.53125 35.828125 
Q 39.65625 40.375 33.015625 40.375 
z
M 52.59375 71.296875 
L 52.59375 62.3125 
Q 48.875 64.0625 45.09375 64.984375 
Q 41.3125 65.921875 37.59375 65.921875 
Q 27.828125 65.921875 22.671875 59.328125 
Q 17.53125 52.734375 16.796875 39.40625 
Q 19.671875 43.65625 24.015625 45.921875 
Q 28.375 48.1875 33.59375 48.1875 
Q 44.578125 48.1875 50.953125 41.515625 
Q 57.328125 34.859375 57.328125 23.390625 
Q 57.328125 12.15625 50.6875 5.359375 
Q 44.046875 -1.421875 33.015625 -1.421875 
Q 20.359375 -1.421875 13.671875 8.265625 
Q 6.984375 17.96875 6.984375 36.375 
Q 6.984375 53.65625 15.1875 63.9375 
Q 23.390625 74.21875 37.203125 74.21875 
Q 40.921875 74.21875 44.703125 73.484375 
Q 48.484375 72.75 52.59375 71.296875 
z
" id="DejaVuSans-36"/>
      </defs>
      <g transform="translate(748.317975 337.196875)scale(0.2 -0.2)">
       <use xlink:href="#DejaVuSans-36"/>
       <use x="63.623047" xlink:href="#DejaVuSans-30"/>
      </g>
     </g>
    </g>
    <g id="xtick_5">
     <g id="line2d_9">
      <path clip-path="url(#p625237f48f)" d="M 945.505785 315 
L 945.505785 43.2 
" style="fill:none;stroke:#b0b0b0;stroke-linecap:square;stroke-width:0.8;"/>
     </g>
     <g id="line2d_10">
      <g>
       <use style="stroke:#000000;stroke-width:0.8;" x="945.505785" xlink:href="#m6aba68d3c2" y="315"/>
      </g>
     </g>
     <g id="text_5">
      <!-- 80 -->
      <defs>
       <path d="M 31.78125 34.625 
Q 24.75 34.625 20.71875 30.859375 
Q 16.703125 27.09375 16.703125 20.515625 
Q 16.703125 13.921875 20.71875 10.15625 
Q 24.75 6.390625 31.78125 6.390625 
Q 38.8125 6.390625 42.859375 10.171875 
Q 46.921875 13.96875 46.921875 20.515625 
Q 46.921875 27.09375 42.890625 30.859375 
Q 38.875 34.625 31.78125 34.625 
z
M 21.921875 38.8125 
Q 15.578125 40.375 12.03125 44.71875 
Q 8.5 49.078125 8.5 55.328125 
Q 8.5 64.0625 14.71875 69.140625 
Q 20.953125 74.21875 31.78125 74.21875 
Q 42.671875 74.21875 48.875 69.140625 
Q 55.078125 64.0625 55.078125 55.328125 
Q 55.078125 49.078125 51.53125 44.71875 
Q 48 40.375 41.703125 38.8125 
Q 48.828125 37.15625 52.796875 32.3125 
Q 56.78125 27.484375 56.78125 20.515625 
Q 56.78125 9.90625 50.3125 4.234375 
Q 43.84375 -1.421875 31.78125 -1.421875 
Q 19.734375 -1.421875 13.25 4.234375 
Q 6.78125 9.90625 6.78125 20.515625 
Q 6.78125 27.484375 10.78125 32.3125 
Q 14.796875 37.15625 21.921875 38.8125 
z
M 18.3125 54.390625 
Q 18.3125 48.734375 21.84375 45.5625 
Q 25.390625 42.390625 31.78125 42.390625 
Q 38.140625 42.390625 41.71875 45.5625 
Q 45.3125 48.734375 45.3125 54.390625 
Q 45.3125 60.0625 41.71875 63.234375 
Q 38.140625 66.40625 31.78125 66.40625 
Q 25.390625 66.40625 21.84375 63.234375 
Q 18.3125 60.0625 18.3125 54.390625 
z
" id="DejaVuSans-38"/>
      </defs>
      <g transform="translate(932.780785 337.196875)scale(0.2 -0.2)">
       <use xlink:href="#DejaVuSans-38"/>
       <use x="63.623047" xlink:href="#DejaVuSans-30"/>
      </g>
     </g>
    </g>
    <g id="xtick_6">
     <g id="line2d_11">
      <path clip-path="url(#p625237f48f)" d="M 1129.968595 315 
L 1129.968595 43.2 
" style="fill:none;stroke:#b0b0b0;stroke-linecap:square;stroke-width:0.8;"/>
     </g>
     <g id="line2d_12">
      <g>
       <use style="stroke:#000000;stroke-width:0.8;" x="1129.968595" xlink:href="#m6aba68d3c2" y="315"/>
      </g>
     </g>
     <g id="text_6">
      <!-- 100 -->
      <defs>
       <path d="M 12.40625 8.296875 
L 28.515625 8.296875 
L 28.515625 63.921875 
L 10.984375 60.40625 
L 10.984375 69.390625 
L 28.421875 72.90625 
L 38.28125 72.90625 
L 38.28125 8.296875 
L 54.390625 8.296875 
L 54.390625 0 
L 12.40625 0 
z
" id="DejaVuSans-31"/>
      </defs>
      <g transform="translate(1110.881095 337.196875)scale(0.2 -0.2)">
       <use xlink:href="#DejaVuSans-31"/>
       <use x="63.623047" xlink:href="#DejaVuSans-30"/>
       <use x="127.246094" xlink:href="#DejaVuSans-30"/>
      </g>
     </g>
    </g>
    <g id="text_7">
     <!-- k (Iteration) -->
     <defs>
      <path d="M 9.078125 75.984375 
L 18.109375 75.984375 
L 18.109375 31.109375 
L 44.921875 54.6875 
L 56.390625 54.6875 
L 27.390625 29.109375 
L 57.625 0 
L 45.90625 0 
L 18.109375 26.703125 
L 18.109375 0 
L 9.078125 0 
z
" id="DejaVuSans-6b"/>
      <path id="DejaVuSans-20"/>
      <path d="M 31 75.875 
Q 24.46875 64.65625 21.28125 53.65625 
Q 18.109375 42.671875 18.109375 31.390625 
Q 18.109375 20.125 21.3125 9.0625 
Q 24.515625 -2 31 -13.1875 
L 23.1875 -13.1875 
Q 15.875 -1.703125 12.234375 9.375 
Q 8.59375 20.453125 8.59375 31.390625 
Q 8.59375 42.28125 12.203125 53.3125 
Q 15.828125 64.359375 23.1875 75.875 
z
" id="DejaVuSans-28"/>
      <path d="M 9.8125 72.90625 
L 19.671875 72.90625 
L 19.671875 0 
L 9.8125 0 
z
" id="DejaVuSans-49"/>
      <path d="M 18.3125 70.21875 
L 18.3125 54.6875 
L 36.8125 54.6875 
L 36.8125 47.703125 
L 18.3125 47.703125 
L 18.3125 18.015625 
Q 18.3125 11.328125 20.140625 9.421875 
Q 21.96875 7.515625 27.59375 7.515625 
L 36.8125 7.515625 
L 36.8125 0 
L 27.59375 0 
Q 17.1875 0 13.234375 3.875 
Q 9.28125 7.765625 9.28125 18.015625 
L 9.28125 47.703125 
L 2.6875 47.703125 
L 2.6875 54.6875 
L 9.28125 54.6875 
L 9.28125 70.21875 
z
" id="DejaVuSans-74"/>
      <path d="M 56.203125 29.59375 
L 56.203125 25.203125 
L 14.890625 25.203125 
Q 15.484375 15.921875 20.484375 11.0625 
Q 25.484375 6.203125 34.421875 6.203125 
Q 39.59375 6.203125 44.453125 7.46875 
Q 49.3125 8.734375 54.109375 11.28125 
L 54.109375 2.78125 
Q 49.265625 0.734375 44.1875 -0.34375 
Q 39.109375 -1.421875 33.890625 -1.421875 
Q 20.796875 -1.421875 13.15625 6.1875 
Q 5.515625 13.8125 5.515625 26.8125 
Q 5.515625 40.234375 12.765625 48.109375 
Q 20.015625 56 32.328125 56 
Q 43.359375 56 49.78125 48.890625 
Q 56.203125 41.796875 56.203125 29.59375 
z
M 47.21875 32.234375 
Q 47.125 39.59375 43.09375 43.984375 
Q 39.0625 48.390625 32.421875 48.390625 
Q 24.90625 48.390625 20.390625 44.140625 
Q 15.875 39.890625 15.1875 32.171875 
z
" id="DejaVuSans-65"/>
      <path d="M 41.109375 46.296875 
Q 39.59375 47.171875 37.8125 47.578125 
Q 36.03125 48 33.890625 48 
Q 26.265625 48 22.1875 43.046875 
Q 18.109375 38.09375 18.109375 28.8125 
L 18.109375 0 
L 9.078125 0 
L 9.078125 54.6875 
L 18.109375 54.6875 
L 18.109375 46.1875 
Q 20.953125 51.171875 25.484375 53.578125 
Q 30.03125 56 36.53125 56 
Q 37.453125 56 38.578125 55.875 
Q 39.703125 55.765625 41.0625 55.515625 
z
" id="DejaVuSans-72"/>
      <path d="M 34.28125 27.484375 
Q 23.390625 27.484375 19.1875 25 
Q 14.984375 22.515625 14.984375 16.5 
Q 14.984375 11.71875 18.140625 8.90625 
Q 21.296875 6.109375 26.703125 6.109375 
Q 34.1875 6.109375 38.703125 11.40625 
Q 43.21875 16.703125 43.21875 25.484375 
L 43.21875 27.484375 
z
M 52.203125 31.203125 
L 52.203125 0 
L 43.21875 0 
L 43.21875 8.296875 
Q 40.140625 3.328125 35.546875 0.953125 
Q 30.953125 -1.421875 24.3125 -1.421875 
Q 15.921875 -1.421875 10.953125 3.296875 
Q 6 8.015625 6 15.921875 
Q 6 25.140625 12.171875 29.828125 
Q 18.359375 34.515625 30.609375 34.515625 
L 43.21875 34.515625 
L 43.21875 35.40625 
Q 43.21875 41.609375 39.140625 45 
Q 35.0625 48.390625 27.6875 48.390625 
Q 23 48.390625 18.546875 47.265625 
Q 14.109375 46.140625 10.015625 43.890625 
L 10.015625 52.203125 
Q 14.9375 54.109375 19.578125 55.046875 
Q 24.21875 56 28.609375 56 
Q 40.484375 56 46.34375 49.84375 
Q 52.203125 43.703125 52.203125 31.203125 
z
" id="DejaVuSans-61"/>
      <path d="M 9.421875 54.6875 
L 18.40625 54.6875 
L 18.40625 0 
L 9.421875 0 
z
M 9.421875 75.984375 
L 18.40625 75.984375 
L 18.40625 64.59375 
L 9.421875 64.59375 
z
" id="DejaVuSans-69"/>
      <path d="M 30.609375 48.390625 
Q 23.390625 48.390625 19.1875 42.75 
Q 14.984375 37.109375 14.984375 27.296875 
Q 14.984375 17.484375 19.15625 11.84375 
Q 23.34375 6.203125 30.609375 6.203125 
Q 37.796875 6.203125 41.984375 11.859375 
Q 46.1875 17.53125 46.1875 27.296875 
Q 46.1875 37.015625 41.984375 42.703125 
Q 37.796875 48.390625 30.609375 48.390625 
z
M 30.609375 56 
Q 42.328125 56 49.015625 48.375 
Q 55.71875 40.765625 55.71875 27.296875 
Q 55.71875 13.875 49.015625 6.21875 
Q 42.328125 -1.421875 30.609375 -1.421875 
Q 18.84375 -1.421875 12.171875 6.21875 
Q 5.515625 13.875 5.515625 27.296875 
Q 5.515625 40.765625 12.171875 48.375 
Q 18.84375 56 30.609375 56 
z
" id="DejaVuSans-6f"/>
      <path d="M 54.890625 33.015625 
L 54.890625 0 
L 45.90625 0 
L 45.90625 32.71875 
Q 45.90625 40.484375 42.875 44.328125 
Q 39.84375 48.1875 33.796875 48.1875 
Q 26.515625 48.1875 22.3125 43.546875 
Q 18.109375 38.921875 18.109375 30.90625 
L 18.109375 0 
L 9.078125 0 
L 9.078125 54.6875 
L 18.109375 54.6875 
L 18.109375 46.1875 
Q 21.34375 51.125 25.703125 53.5625 
Q 30.078125 56 35.796875 56 
Q 45.21875 56 50.046875 50.171875 
Q 54.890625 44.34375 54.890625 33.015625 
z
" id="DejaVuSans-6e"/>
      <path d="M 8.015625 75.875 
L 15.828125 75.875 
Q 23.140625 64.359375 26.78125 53.3125 
Q 30.421875 42.28125 30.421875 31.390625 
Q 30.421875 20.453125 26.78125 9.375 
Q 23.140625 -1.703125 15.828125 -13.1875 
L 8.015625 -13.1875 
Q 14.5 -2 17.703125 9.0625 
Q 20.90625 20.125 20.90625 31.390625 
Q 20.90625 42.671875 17.703125 53.65625 
Q 14.5 64.65625 8.015625 75.875 
z
" id="DejaVuSans-29"/>
     </defs>
     <g transform="translate(616.84875 357.51375)scale(0.16 -0.16)">
      <use xlink:href="#DejaVuSans-6b"/>
      <use x="57.910156" xlink:href="#DejaVuSans-20"/>
      <use x="89.697266" xlink:href="#DejaVuSans-28"/>
      <use x="128.710938" xlink:href="#DejaVuSans-49"/>
      <use x="158.203125" xlink:href="#DejaVuSans-74"/>
      <use x="197.412109" xlink:href="#DejaVuSans-65"/>
      <use x="258.935547" xlink:href="#DejaVuSans-72"/>
      <use x="300.048828" xlink:href="#DejaVuSans-61"/>
      <use x="361.328125" xlink:href="#DejaVuSans-74"/>
      <use x="400.537109" xlink:href="#DejaVuSans-69"/>
      <use x="428.320312" xlink:href="#DejaVuSans-6f"/>
      <use x="489.501953" xlink:href="#DejaVuSans-6e"/>
      <use x="552.880859" xlink:href="#DejaVuSans-29"/>
     </g>
    </g>
   </g>
   <g id="matplotlib.axis_2">
    <g id="ytick_1">
     <g id="line2d_13">
      <path clip-path="url(#p625237f48f)" d="M 162 308.622096 
L 1166.4 308.622096 
" style="fill:none;stroke:#b0b0b0;stroke-linecap:square;stroke-width:0.8;"/>
     </g>
     <g id="line2d_14">
      <defs>
       <path d="M 0 0 
L -3.5 0 
" id="m4bf42fc382" style="stroke:#000000;stroke-width:0.8;"/>
      </defs>
      <g>
       <use style="stroke:#000000;stroke-width:0.8;" x="162" xlink:href="#m4bf42fc382" y="308.622096"/>
      </g>
     </g>
     <g id="text_8">
      <!-- 0 -->
      <g transform="translate(142.275 316.220534)scale(0.2 -0.2)">
       <use xlink:href="#DejaVuSans-30"/>
      </g>
     </g>
    </g>
    <g id="ytick_2">
     <g id="line2d_15">
      <path clip-path="url(#p625237f48f)" d="M 162 258.50123 
L 1166.4 258.50123 
" style="fill:none;stroke:#b0b0b0;stroke-linecap:square;stroke-width:0.8;"/>
     </g>
     <g id="line2d_16">
      <g>
       <use style="stroke:#000000;stroke-width:0.8;" x="162" xlink:href="#m4bf42fc382" y="258.50123"/>
      </g>
     </g>
     <g id="text_9">
      <!-- 200 -->
      <g transform="translate(116.825 266.099667)scale(0.2 -0.2)">
       <use xlink:href="#DejaVuSans-32"/>
       <use x="63.623047" xlink:href="#DejaVuSans-30"/>
       <use x="127.246094" xlink:href="#DejaVuSans-30"/>
      </g>
     </g>
    </g>
    <g id="ytick_3">
     <g id="line2d_17">
      <path clip-path="url(#p625237f48f)" d="M 162 208.380363 
L 1166.4 208.380363 
" style="fill:none;stroke:#b0b0b0;stroke-linecap:square;stroke-width:0.8;"/>
     </g>
     <g id="line2d_18">
      <g>
       <use style="stroke:#000000;stroke-width:0.8;" x="162" xlink:href="#m4bf42fc382" y="208.380363"/>
      </g>
     </g>
     <g id="text_10">
      <!-- 400 -->
      <g transform="translate(116.825 215.978801)scale(0.2 -0.2)">
       <use xlink:href="#DejaVuSans-34"/>
       <use x="63.623047" xlink:href="#DejaVuSans-30"/>
       <use x="127.246094" xlink:href="#DejaVuSans-30"/>
      </g>
     </g>
    </g>
    <g id="ytick_4">
     <g id="line2d_19">
      <path clip-path="url(#p625237f48f)" d="M 162 158.259497 
L 1166.4 158.259497 
" style="fill:none;stroke:#b0b0b0;stroke-linecap:square;stroke-width:0.8;"/>
     </g>
     <g id="line2d_20">
      <g>
       <use style="stroke:#000000;stroke-width:0.8;" x="162" xlink:href="#m4bf42fc382" y="158.259497"/>
      </g>
     </g>
     <g id="text_11">
      <!-- 600 -->
      <g transform="translate(116.825 165.857934)scale(0.2 -0.2)">
       <use xlink:href="#DejaVuSans-36"/>
       <use x="63.623047" xlink:href="#DejaVuSans-30"/>
       <use x="127.246094" xlink:href="#DejaVuSans-30"/>
      </g>
     </g>
    </g>
    <g id="ytick_5">
     <g id="line2d_21">
      <path clip-path="url(#p625237f48f)" d="M 162 108.13863 
L 1166.4 108.13863 
" style="fill:none;stroke:#b0b0b0;stroke-linecap:square;stroke-width:0.8;"/>
     </g>
     <g id="line2d_22">
      <g>
       <use style="stroke:#000000;stroke-width:0.8;" x="162" xlink:href="#m4bf42fc382" y="108.13863"/>
      </g>
     </g>
     <g id="text_12">
      <!-- 800 -->
      <g transform="translate(116.825 115.737068)scale(0.2 -0.2)">
       <use xlink:href="#DejaVuSans-38"/>
       <use x="63.623047" xlink:href="#DejaVuSans-30"/>
       <use x="127.246094" xlink:href="#DejaVuSans-30"/>
      </g>
     </g>
    </g>
    <g id="ytick_6">
     <g id="line2d_23">
      <path clip-path="url(#p625237f48f)" d="M 162 58.017764 
L 1166.4 58.017764 
" style="fill:none;stroke:#b0b0b0;stroke-linecap:square;stroke-width:0.8;"/>
     </g>
     <g id="line2d_24">
      <g>
       <use style="stroke:#000000;stroke-width:0.8;" x="162" xlink:href="#m4bf42fc382" y="58.017764"/>
      </g>
     </g>
     <g id="text_13">
      <!-- 1000 -->
      <g transform="translate(104.1 65.616201)scale(0.2 -0.2)">
       <use xlink:href="#DejaVuSans-31"/>
       <use x="63.623047" xlink:href="#DejaVuSans-30"/>
       <use x="127.246094" xlink:href="#DejaVuSans-30"/>
       <use x="190.869141" xlink:href="#DejaVuSans-30"/>
      </g>
     </g>
    </g>
    <g id="text_14">
     <!-- $-\log(L(\theta))$ -->
     <defs>
      <path d="M 10.59375 35.5 
L 73.1875 35.5 
L 73.1875 27.203125 
L 10.59375 27.203125 
z
" id="DejaVuSans-2212"/>
      <path d="M 9.421875 75.984375 
L 18.40625 75.984375 
L 18.40625 0 
L 9.421875 0 
z
" id="DejaVuSans-6c"/>
      <path d="M 45.40625 27.984375 
Q 45.40625 37.75 41.375 43.109375 
Q 37.359375 48.484375 30.078125 48.484375 
Q 22.859375 48.484375 18.828125 43.109375 
Q 14.796875 37.75 14.796875 27.984375 
Q 14.796875 18.265625 18.828125 12.890625 
Q 22.859375 7.515625 30.078125 7.515625 
Q 37.359375 7.515625 41.375 12.890625 
Q 45.40625 18.265625 45.40625 27.984375 
z
M 54.390625 6.78125 
Q 54.390625 -7.171875 48.1875 -13.984375 
Q 42 -20.796875 29.203125 -20.796875 
Q 24.46875 -20.796875 20.265625 -20.09375 
Q 16.0625 -19.390625 12.109375 -17.921875 
L 12.109375 -9.1875 
Q 16.0625 -11.328125 19.921875 -12.34375 
Q 23.78125 -13.375 27.78125 -13.375 
Q 36.625 -13.375 41.015625 -8.765625 
Q 45.40625 -4.15625 45.40625 5.171875 
L 45.40625 9.625 
Q 42.625 4.78125 38.28125 2.390625 
Q 33.9375 0 27.875 0 
Q 17.828125 0 11.671875 7.65625 
Q 5.515625 15.328125 5.515625 27.984375 
Q 5.515625 40.671875 11.671875 48.328125 
Q 17.828125 56 27.875 56 
Q 33.9375 56 38.28125 53.609375 
Q 42.625 51.21875 45.40625 46.390625 
L 45.40625 54.6875 
L 54.390625 54.6875 
z
" id="DejaVuSans-67"/>
      <path d="M 16.796875 72.90625 
L 26.703125 72.90625 
L 14.203125 8.203125 
L 49.703125 8.203125 
L 48.09375 0 
L 2.6875 0 
z
" id="DejaVuSans-Oblique-4c"/>
      <path d="M 45.515625 34.671875 
L 14.453125 34.671875 
Q 12.359375 20.0625 14.5 13.875 
Q 17.1875 6.25 24.46875 6.25 
Q 31.78125 6.25 37.359375 13.921875 
Q 42.234375 20.65625 45.515625 34.671875 
z
M 47.015625 42.96875 
Q 48.34375 56.84375 46.625 61.71875 
Q 43.953125 69.4375 36.765625 69.4375 
Q 29.296875 69.4375 23.828125 61.8125 
Q 19.53125 55.671875 16.15625 42.96875 
z
M 38.1875 76.765625 
Q 49.90625 76.765625 54.59375 66.40625 
Q 59.28125 56.109375 55.71875 37.84375 
Q 52.203125 19.625 43.453125 9.28125 
Q 34.765625 -1.125 23.046875 -1.125 
Q 11.28125 -1.125 6.640625 9.28125 
Q 2 19.625 5.515625 37.84375 
Q 9.078125 56.109375 17.71875 66.40625 
Q 26.421875 76.765625 38.1875 76.765625 
z
" id="DejaVuSans-Oblique-3b8"/>
     </defs>
     <g transform="translate(96.74 219.9)rotate(-90)scale(0.16 -0.16)">
      <use transform="translate(0 0.234375)" xlink:href="#DejaVuSans-2212"/>
      <use transform="translate(83.789062 0.234375)" xlink:href="#DejaVuSans-6c"/>
      <use transform="translate(111.572266 0.234375)" xlink:href="#DejaVuSans-6f"/>
      <use transform="translate(172.753906 0.234375)" xlink:href="#DejaVuSans-67"/>
      <use transform="translate(236.230469 0.234375)" xlink:href="#DejaVuSans-28"/>
      <use transform="translate(275.244141 0.234375)" xlink:href="#DejaVuSans-Oblique-4c"/>
      <use transform="translate(330.957031 0.234375)" xlink:href="#DejaVuSans-28"/>
      <use transform="translate(369.970703 0.234375)" xlink:href="#DejaVuSans-Oblique-3b8"/>
      <use transform="translate(431.152344 0.234375)" xlink:href="#DejaVuSans-29"/>
      <use transform="translate(470.166016 0.234375)" xlink:href="#DejaVuSans-29"/>
     </g>
    </g>
   </g>
   <g id="line2d_25">
    <path clip-path="url(#p625237f48f)" d="M 207.654545 106.342514 
L 216.877686 102.041983 
L 226.100826 111.432919 
L 235.323967 120.442112 
L 244.547107 111.198312 
L 253.770248 122.102308 
L 262.993388 115.6641 
L 272.216529 104.255265 
L 281.439669 101.151207 
L 290.66281 110.188631 
L 299.88595 91.521888 
L 309.109091 106.467176 
L 318.332231 128.103062 
L 327.555372 105.124451 
L 336.778512 121.88537 
L 346.001653 107.29465 
L 355.224793 102.851641 
L 364.447934 124.550567 
L 373.671074 114.113784 
L 382.894215 117.468715 
L 392.117355 95.320031 
L 401.340496 115.586115 
L 410.563636 121.358087 
L 419.786777 109.652642 
L 429.009917 109.955611 
L 438.233058 98.090569 
L 447.456198 118.198014 
L 456.679339 116.134162 
L 465.902479 105.564382 
L 475.12562 99.300172 
L 484.34876 116.844157 
L 493.571901 111.419228 
L 502.795041 111.205149 
L 512.018182 117.385094 
L 521.241322 110.30423 
L 530.464463 111.93689 
L 539.687603 111.51516 
L 548.910744 126.708022 
L 558.133884 82.763514 
L 567.357025 96.387538 
L 576.580165 110.020112 
L 585.803306 98.277927 
L 595.026446 111.617488 
L 604.249587 132.764579 
L 613.472727 103.567101 
L 622.695868 109.663217 
L 631.919008 114.645627 
L 641.142149 105.437018 
L 650.365289 106.630044 
L 659.58843 106.496712 
L 668.81157 126.658792 
L 678.034711 90.840577 
L 687.257851 123.278319 
L 696.480992 111.849589 
L 705.704132 111.503982 
L 714.927273 120.30524 
L 724.150413 94.531177 
L 733.373554 125.284058 
L 742.596694 113.700702 
L 751.819835 107.417576 
L 761.042975 126.785119 
L 770.266116 116.043495 
L 779.489256 133.449982 
L 788.712397 104.899111 
L 797.935537 111.223597 
L 807.158678 123.177538 
L 816.381818 112.123056 
L 825.604959 136.592051 
L 834.828099 100.659529 
L 844.05124 93.636276 
L 853.27438 114.635172 
L 862.497521 116.435792 
L 871.720661 111.990544 
L 880.943802 110.191471 
L 890.166942 115.226657 
L 899.390083 103.789476 
L 908.613223 102.399325 
L 917.836364 115.157435 
L 927.059504 104.812021 
L 936.282645 113.576088 
L 945.505785 101.479483 
L 954.728926 103.150105 
L 963.952066 140.596503 
L 973.175207 108.030332 
L 982.398347 102.695994 
L 991.621488 114.068201 
L 1000.844628 101.430808 
L 1010.067769 95.615923 
L 1019.290909 112.55059 
L 1028.51405 130.908514 
L 1037.73719 111.696994 
L 1046.960331 99.635515 
L 1056.183471 117.81266 
L 1065.406612 108.618397 
L 1074.629752 89.792758 
L 1083.852893 112.954215 
L 1093.076033 114.819924 
L 1102.299174 114.55013 
L 1111.522314 93.846909 
L 1120.745455 103.179552 
" style="fill:none;stroke:#1f77b4;stroke-linecap:square;stroke-width:4;"/>
   </g>
   <g id="line2d_26">
    <path clip-path="url(#p625237f48f)" d="M 207.654545 145.304899 
L 216.877686 126.551084 
L 226.100826 120.746528 
L 235.323967 147.791207 
L 244.547107 133.322067 
L 253.770248 148.522003 
L 262.993388 110.133086 
L 272.216529 116.349747 
L 281.439669 127.327542 
L 290.66281 134.111964 
L 299.88595 118.906004 
L 309.109091 114.791784 
L 318.332231 124.506598 
L 327.555372 117.529384 
L 336.778512 135.358511 
L 346.001653 126.758012 
L 355.224793 132.696006 
L 364.447934 119.747227 
L 373.671074 114.329028 
L 382.894215 106.47616 
L 392.117355 117.723264 
L 401.340496 125.661865 
L 410.563636 116.690573 
L 419.786777 126.451077 
L 429.009917 121.594757 
L 438.233058 117.802776 
L 447.456198 129.969321 
L 456.679339 135.882451 
L 465.902479 125.859585 
L 475.12562 148.225756 
L 484.34876 135.123654 
L 493.571901 135.515198 
L 502.795041 121.571477 
L 512.018182 131.941334 
L 521.241322 123.279816 
L 530.464463 120.857374 
L 539.687603 143.9974 
L 548.910744 127.166357 
L 558.133884 125.015801 
L 567.357025 124.044091 
L 576.580165 124.444449 
L 585.803306 129.747039 
L 595.026446 129.197732 
L 604.249587 126.189688 
L 613.472727 135.49613 
L 622.695868 130.761787 
L 631.919008 122.439885 
L 641.142149 125.90151 
L 650.365289 134.776402 
L 659.58843 135.156668 
L 668.81157 136.817447 
L 678.034711 131.201086 
L 687.257851 134.427072 
L 696.480992 137.278902 
L 705.704132 140.221444 
L 714.927273 138.044234 
L 724.150413 140.591306 
L 733.373554 147.830791 
L 742.596694 145.938019 
L 751.819835 143.7782 
L 761.042975 140.754155 
L 770.266116 141.877446 
L 779.489256 147.980056 
L 788.712397 137.21026 
L 797.935537 143.876719 
L 807.158678 148.099551 
L 816.381818 145.117469 
L 825.604959 149.851966 
L 834.828099 150.837297 
L 844.05124 150.698906 
L 853.27438 148.466909 
L 862.497521 152.978336 
L 871.720661 149.383285 
L 880.943802 151.669701 
L 890.166942 151.302077 
L 899.390083 155.676876 
L 908.613223 155.155138 
L 917.836364 159.956136 
L 927.059504 162.525965 
L 936.282645 166.540048 
L 945.505785 170.60327 
L 954.728926 174.059038 
L 963.952066 178.063367 
L 973.175207 181.417162 
L 982.398347 185.814828 
L 991.621488 189.484153 
L 1000.844628 193.32837 
L 1010.067769 205.202452 
L 1019.290909 200.919577 
L 1028.51405 201.6172 
L 1037.73719 205.057392 
L 1046.960331 211.867337 
L 1056.183471 216.421451 
L 1065.406612 220.537695 
L 1074.629752 224.744263 
L 1083.852893 228.852304 
L 1093.076033 232.84465 
L 1102.299174 236.722762 
L 1111.522314 240.449068 
L 1120.745455 244.016755 
" style="fill:none;stroke:#ff7f0e;stroke-linecap:square;stroke-width:4;"/>
   </g>
   <g id="line2d_27">
    <path clip-path="url(#p625237f48f)" d="M 207.654545 110.420638 
L 216.877686 116.72202 
L 226.100826 114.577776 
L 235.323967 106.927318 
L 244.547107 91.847094 
L 253.770248 114.348185 
L 262.993388 112.444773 
L 272.216529 109.822389 
L 281.439669 116.564249 
L 290.66281 111.144732 
L 299.88595 88.98596 
L 309.109091 107.924258 
L 318.332231 108.315627 
L 327.555372 103.802133 
L 336.778512 115.321612 
L 346.001653 114.210676 
L 355.224793 112.647091 
L 364.447934 107.125898 
L 373.671074 107.339412 
L 382.894215 104.133528 
L 392.117355 117.235008 
L 401.340496 101.111563 
L 410.563636 124.077984 
L 419.786777 108.291299 
L 429.009917 110.706252 
L 438.233058 107.395525 
L 447.456198 110.959846 
L 456.679339 105.300366 
L 465.902479 102.267976 
L 475.12562 115.38788 
L 484.34876 116.128188 
L 493.571901 104.582709 
L 502.795041 114.497348 
L 512.018182 112.904312 
L 521.241322 116.637774 
L 530.464463 106.083124 
L 539.687603 108.285595 
L 548.910744 118.165667 
L 558.133884 122.009187 
L 567.357025 110.148463 
L 576.580165 108.834956 
L 585.803306 121.903458 
L 595.026446 107.937978 
L 604.249587 122.443311 
L 613.472727 102.780207 
L 622.695868 119.694491 
L 631.919008 121.822022 
L 641.142149 126.964217 
L 650.365289 129.418734 
L 659.58843 106.596202 
L 668.81157 111.931196 
L 678.034711 106.372917 
L 687.257851 115.784467 
L 696.480992 114.816562 
L 705.704132 113.138489 
L 714.927273 128.808984 
L 724.150413 103.979435 
L 733.373554 105.491167 
L 742.596694 104.249893 
L 751.819835 115.548756 
L 761.042975 111.593231 
L 770.266116 117.571683 
L 779.489256 108.217163 
L 788.712397 108.251048 
L 797.935537 106.88684 
L 807.158678 104.231057 
L 816.381818 104.310844 
L 825.604959 110.916645 
L 834.828099 113.313815 
L 844.05124 104.911717 
L 853.27438 97.042369 
L 862.497521 100.88177 
L 871.720661 112.343387 
L 880.943802 113.54012 
L 890.166942 98.419097 
L 899.390083 122.541293 
L 908.613223 103.415324 
L 917.836364 98.063235 
L 927.059504 110.798857 
L 936.282645 113.906617 
L 945.505785 103.744683 
L 954.728926 112.06371 
L 963.952066 98.751721 
L 973.175207 117.817369 
L 982.398347 118.866937 
L 991.621488 111.243094 
L 1000.844628 106.622902 
L 1010.067769 114.806731 
L 1019.290909 99.928089 
L 1028.51405 105.720722 
L 1037.73719 104.498653 
L 1046.960331 108.07321 
L 1056.183471 105.893271 
L 1065.406612 111.701496 
L 1074.629752 109.013558 
L 1083.852893 90.695843 
L 1093.076033 112.950363 
L 1102.299174 112.813018 
L 1111.522314 114.183355 
L 1120.745455 132.208694 
" style="fill:none;stroke:#2ca02c;stroke-linecap:square;stroke-width:4;"/>
   </g>
   <g id="line2d_28">
    <path clip-path="url(#p625237f48f)" d="M 207.654545 107.708278 
L 216.877686 119.809925 
L 226.100826 101.731861 
L 235.323967 123.791537 
L 244.547107 120.722772 
L 253.770248 112.096021 
L 262.993388 112.096799 
L 272.216529 122.289964 
L 281.439669 99.451961 
L 290.66281 112.136334 
L 299.88595 118.101182 
L 309.109091 116.606714 
L 318.332231 109.745131 
L 327.555372 106.18898 
L 336.778512 116.31622 
L 346.001653 105.442141 
L 355.224793 116.041478 
L 364.447934 116.055987 
L 373.671074 112.584025 
L 382.894215 124.359088 
L 392.117355 110.78735 
L 401.340496 123.098178 
L 410.563636 112.816343 
L 419.786777 112.180512 
L 429.009917 106.415978 
L 438.233058 117.191388 
L 447.456198 119.309612 
L 456.679339 90.518867 
L 465.902479 107.694718 
L 475.12562 122.116358 
L 484.34876 114.116729 
L 493.571901 122.471939 
L 502.795041 116.359225 
L 512.018182 104.859511 
L 521.241322 114.192994 
L 530.464463 100.644777 
L 539.687603 102.506233 
L 548.910744 113.520215 
L 558.133884 119.040419 
L 567.357025 115.78835 
L 576.580165 112.398069 
L 585.803306 112.282343 
L 595.026446 108.169007 
L 604.249587 115.193552 
L 613.472727 115.620536 
L 622.695868 118.133719 
L 631.919008 104.318224 
L 641.142149 118.317109 
L 650.365289 113.845906 
L 659.58843 111.610768 
L 668.81157 105.239449 
L 678.034711 124.528604 
L 687.257851 96.76604 
L 696.480992 107.678262 
L 705.704132 100.884456 
L 714.927273 105.906603 
L 724.150413 113.477504 
L 733.373554 113.196218 
L 742.596694 123.867474 
L 751.819835 108.019108 
L 761.042975 107.522026 
L 770.266116 109.865644 
L 779.489256 108.236896 
L 788.712397 116.006512 
L 797.935537 117.176777 
L 807.158678 105.411572 
L 816.381818 107.624296 
L 825.604959 116.274303 
L 834.828099 109.633564 
L 844.05124 129.060764 
L 853.27438 93.980136 
L 862.497521 103.909311 
L 871.720661 102.437266 
L 880.943802 118.331934 
L 890.166942 109.966333 
L 899.390083 102.670115 
L 908.613223 55.554545 
L 917.836364 106.130549 
L 927.059504 88.541566 
L 936.282645 93.13599 
L 945.505785 113.209742 
L 954.728926 108.961741 
L 963.952066 106.317906 
L 973.175207 113.070918 
L 982.398347 145.49422 
L 991.621488 88.421402 
L 1000.844628 101.076732 
L 1010.067769 114.933794 
L 1019.290909 115.960134 
L 1028.51405 101.022449 
L 1037.73719 117.143895 
L 1046.960331 106.238446 
L 1056.183471 115.472598 
L 1065.406612 111.592459 
L 1074.629752 115.321773 
L 1083.852893 109.087045 
L 1093.076033 111.553449 
L 1102.299174 106.459487 
L 1111.522314 130.489723 
L 1120.745455 105.558215 
" style="fill:none;stroke:#d62728;stroke-linecap:square;stroke-width:4;"/>
   </g>
   <g id="line2d_29">
    <path clip-path="url(#p625237f48f)" d="M 207.654545 169.330977 
L 216.877686 170.915061 
L 226.100826 173.11061 
L 235.323967 177.273964 
L 244.547107 181.274887 
L 253.770248 184.618209 
L 262.993388 188.758922 
L 272.216529 194.973069 
L 281.439669 197.451433 
L 290.66281 199.131042 
L 299.88595 232.432132 
L 309.109091 206.596213 
L 318.332231 210.76881 
L 327.555372 214.977312 
L 336.778512 219.567753 
L 346.001653 223.610502 
L 355.224793 227.696226 
L 364.447934 231.795979 
L 373.671074 235.706627 
L 382.894215 239.481227 
L 392.117355 243.090367 
L 401.340496 246.538511 
L 410.563636 249.831804 
L 419.786777 252.983018 
L 429.009917 256.007505 
L 438.233058 258.919233 
L 447.456198 261.728445 
L 456.679339 264.440888 
L 465.902479 267.058417 
L 475.12562 269.580224 
L 484.34876 272.004129 
L 493.571901 274.327635 
L 502.795041 276.548731 
L 512.018182 278.666774 
L 521.241322 280.683517 
L 530.464463 282.603436 
L 539.687603 284.432604 
L 548.910744 286.177055 
L 558.133884 287.841801 
L 567.357025 289.430549 
L 576.580165 290.94576 
L 585.803306 292.388779 
L 595.026446 293.759973 
L 604.249587 295.058818 
L 613.472727 296.283881 
L 622.695868 297.432598 
L 631.919008 298.50071 
L 641.142149 299.481292 
L 650.365289 300.363449 
L 659.58843 301.131208 
L 668.81157 301.763687 
L 678.034711 302.237846 
L 687.257851 302.53436 
L 696.480992 302.645132 
L 705.704132 302.579129 
L 714.927273 302.579129 
L 724.150413 302.632931 
L 733.373554 302.634684 
L 742.596694 302.641318 
L 751.819835 302.636802 
L 761.042975 302.645125 
L 770.266116 302.623814 
L 779.489256 302.637936 
L 788.712397 302.63869 
L 797.935537 302.645436 
L 807.158678 302.623014 
L 816.381818 302.637694 
L 825.604959 302.638801 
L 834.828099 302.645453 
L 844.05124 302.622964 
L 853.27438 302.637679 
L 862.497521 302.638808 
L 871.720661 302.645454 
L 880.943802 302.62296 
L 890.166942 302.637678 
L 899.390083 302.638808 
L 908.613223 302.645455 
L 917.836364 302.62296 
L 927.059504 302.637678 
L 936.282645 302.638808 
L 945.505785 302.645455 
L 954.728926 302.62296 
L 963.952066 302.637678 
L 973.175207 302.638808 
L 982.398347 302.645455 
L 991.621488 302.62296 
L 1000.844628 302.637678 
L 1010.067769 302.638808 
L 1019.290909 302.645455 
L 1028.51405 302.62296 
L 1037.73719 302.637678 
L 1046.960331 302.638808 
L 1056.183471 302.645455 
L 1065.406612 302.62296 
L 1074.629752 302.637678 
L 1083.852893 302.638808 
L 1093.076033 302.645455 
L 1102.299174 302.62296 
L 1111.522314 302.637678 
L 1120.745455 302.638808 
" style="fill:none;stroke:#9467bd;stroke-linecap:square;stroke-width:4;"/>
   </g>
   <g id="patch_3">
    <path d="M 162 315 
L 162 43.2 
" style="fill:none;stroke:#000000;stroke-linecap:square;stroke-linejoin:miter;stroke-width:0.8;"/>
   </g>
   <g id="patch_4">
    <path d="M 1166.4 315 
L 1166.4 43.2 
" style="fill:none;stroke:#000000;stroke-linecap:square;stroke-linejoin:miter;stroke-width:0.8;"/>
   </g>
   <g id="patch_5">
    <path d="M 162 315 
L 1166.4 315 
" style="fill:none;stroke:#000000;stroke-linecap:square;stroke-linejoin:miter;stroke-width:0.8;"/>
   </g>
   <g id="patch_6">
    <path d="M 162 43.2 
L 1166.4 43.2 
" style="fill:none;stroke:#000000;stroke-linecap:square;stroke-linejoin:miter;stroke-width:0.8;"/>
   </g>
   <g id="text_15">
    <!-- Log-Likelihood Optimization Cost -->
    <defs>
     <path d="M 9.8125 72.90625 
L 19.671875 72.90625 
L 19.671875 8.296875 
L 55.171875 8.296875 
L 55.171875 0 
L 9.8125 0 
z
" id="DejaVuSans-4c"/>
     <path d="M 4.890625 31.390625 
L 31.203125 31.390625 
L 31.203125 23.390625 
L 4.890625 23.390625 
z
" id="DejaVuSans-2d"/>
     <path d="M 54.890625 33.015625 
L 54.890625 0 
L 45.90625 0 
L 45.90625 32.71875 
Q 45.90625 40.484375 42.875 44.328125 
Q 39.84375 48.1875 33.796875 48.1875 
Q 26.515625 48.1875 22.3125 43.546875 
Q 18.109375 38.921875 18.109375 30.90625 
L 18.109375 0 
L 9.078125 0 
L 9.078125 75.984375 
L 18.109375 75.984375 
L 18.109375 46.1875 
Q 21.34375 51.125 25.703125 53.5625 
Q 30.078125 56 35.796875 56 
Q 45.21875 56 50.046875 50.171875 
Q 54.890625 44.34375 54.890625 33.015625 
z
" id="DejaVuSans-68"/>
     <path d="M 45.40625 46.390625 
L 45.40625 75.984375 
L 54.390625 75.984375 
L 54.390625 0 
L 45.40625 0 
L 45.40625 8.203125 
Q 42.578125 3.328125 38.25 0.953125 
Q 33.9375 -1.421875 27.875 -1.421875 
Q 17.96875 -1.421875 11.734375 6.484375 
Q 5.515625 14.40625 5.515625 27.296875 
Q 5.515625 40.1875 11.734375 48.09375 
Q 17.96875 56 27.875 56 
Q 33.9375 56 38.25 53.625 
Q 42.578125 51.265625 45.40625 46.390625 
z
M 14.796875 27.296875 
Q 14.796875 17.390625 18.875 11.75 
Q 22.953125 6.109375 30.078125 6.109375 
Q 37.203125 6.109375 41.296875 11.75 
Q 45.40625 17.390625 45.40625 27.296875 
Q 45.40625 37.203125 41.296875 42.84375 
Q 37.203125 48.484375 30.078125 48.484375 
Q 22.953125 48.484375 18.875 42.84375 
Q 14.796875 37.203125 14.796875 27.296875 
z
" id="DejaVuSans-64"/>
     <path d="M 39.40625 66.21875 
Q 28.65625 66.21875 22.328125 58.203125 
Q 16.015625 50.203125 16.015625 36.375 
Q 16.015625 22.609375 22.328125 14.59375 
Q 28.65625 6.59375 39.40625 6.59375 
Q 50.140625 6.59375 56.421875 14.59375 
Q 62.703125 22.609375 62.703125 36.375 
Q 62.703125 50.203125 56.421875 58.203125 
Q 50.140625 66.21875 39.40625 66.21875 
z
M 39.40625 74.21875 
Q 54.734375 74.21875 63.90625 63.9375 
Q 73.09375 53.65625 73.09375 36.375 
Q 73.09375 19.140625 63.90625 8.859375 
Q 54.734375 -1.421875 39.40625 -1.421875 
Q 24.03125 -1.421875 14.8125 8.828125 
Q 5.609375 19.09375 5.609375 36.375 
Q 5.609375 53.65625 14.8125 63.9375 
Q 24.03125 74.21875 39.40625 74.21875 
z
" id="DejaVuSans-4f"/>
     <path d="M 18.109375 8.203125 
L 18.109375 -20.796875 
L 9.078125 -20.796875 
L 9.078125 54.6875 
L 18.109375 54.6875 
L 18.109375 46.390625 
Q 20.953125 51.265625 25.265625 53.625 
Q 29.59375 56 35.59375 56 
Q 45.5625 56 51.78125 48.09375 
Q 58.015625 40.1875 58.015625 27.296875 
Q 58.015625 14.40625 51.78125 6.484375 
Q 45.5625 -1.421875 35.59375 -1.421875 
Q 29.59375 -1.421875 25.265625 0.953125 
Q 20.953125 3.328125 18.109375 8.203125 
z
M 48.6875 27.296875 
Q 48.6875 37.203125 44.609375 42.84375 
Q 40.53125 48.484375 33.40625 48.484375 
Q 26.265625 48.484375 22.1875 42.84375 
Q 18.109375 37.203125 18.109375 27.296875 
Q 18.109375 17.390625 22.1875 11.75 
Q 26.265625 6.109375 33.40625 6.109375 
Q 40.53125 6.109375 44.609375 11.75 
Q 48.6875 17.390625 48.6875 27.296875 
z
" id="DejaVuSans-70"/>
     <path d="M 52 44.1875 
Q 55.375 50.25 60.0625 53.125 
Q 64.75 56 71.09375 56 
Q 79.640625 56 84.28125 50.015625 
Q 88.921875 44.046875 88.921875 33.015625 
L 88.921875 0 
L 79.890625 0 
L 79.890625 32.71875 
Q 79.890625 40.578125 77.09375 44.375 
Q 74.3125 48.1875 68.609375 48.1875 
Q 61.625 48.1875 57.5625 43.546875 
Q 53.515625 38.921875 53.515625 30.90625 
L 53.515625 0 
L 44.484375 0 
L 44.484375 32.71875 
Q 44.484375 40.625 41.703125 44.40625 
Q 38.921875 48.1875 33.109375 48.1875 
Q 26.21875 48.1875 22.15625 43.53125 
Q 18.109375 38.875 18.109375 30.90625 
L 18.109375 0 
L 9.078125 0 
L 9.078125 54.6875 
L 18.109375 54.6875 
L 18.109375 46.1875 
Q 21.1875 51.21875 25.484375 53.609375 
Q 29.78125 56 35.6875 56 
Q 41.65625 56 45.828125 52.96875 
Q 50 49.953125 52 44.1875 
z
" id="DejaVuSans-6d"/>
     <path d="M 5.515625 54.6875 
L 48.1875 54.6875 
L 48.1875 46.484375 
L 14.40625 7.171875 
L 48.1875 7.171875 
L 48.1875 0 
L 4.296875 0 
L 4.296875 8.203125 
L 38.09375 47.515625 
L 5.515625 47.515625 
z
" id="DejaVuSans-7a"/>
     <path d="M 64.40625 67.28125 
L 64.40625 56.890625 
Q 59.421875 61.53125 53.78125 63.8125 
Q 48.140625 66.109375 41.796875 66.109375 
Q 29.296875 66.109375 22.65625 58.46875 
Q 16.015625 50.828125 16.015625 36.375 
Q 16.015625 21.96875 22.65625 14.328125 
Q 29.296875 6.6875 41.796875 6.6875 
Q 48.140625 6.6875 53.78125 8.984375 
Q 59.421875 11.28125 64.40625 15.921875 
L 64.40625 5.609375 
Q 59.234375 2.09375 53.4375 0.328125 
Q 47.65625 -1.421875 41.21875 -1.421875 
Q 24.65625 -1.421875 15.125 8.703125 
Q 5.609375 18.84375 5.609375 36.375 
Q 5.609375 53.953125 15.125 64.078125 
Q 24.65625 74.21875 41.21875 74.21875 
Q 47.75 74.21875 53.53125 72.484375 
Q 59.328125 70.75 64.40625 67.28125 
z
" id="DejaVuSans-43"/>
     <path d="M 44.28125 53.078125 
L 44.28125 44.578125 
Q 40.484375 46.53125 36.375 47.5 
Q 32.28125 48.484375 27.875 48.484375 
Q 21.1875 48.484375 17.84375 46.4375 
Q 14.5 44.390625 14.5 40.28125 
Q 14.5 37.15625 16.890625 35.375 
Q 19.28125 33.59375 26.515625 31.984375 
L 29.59375 31.296875 
Q 39.15625 29.25 43.1875 25.515625 
Q 47.21875 21.78125 47.21875 15.09375 
Q 47.21875 7.46875 41.1875 3.015625 
Q 35.15625 -1.421875 24.609375 -1.421875 
Q 20.21875 -1.421875 15.453125 -0.5625 
Q 10.6875 0.296875 5.421875 2 
L 5.421875 11.28125 
Q 10.40625 8.6875 15.234375 7.390625 
Q 20.0625 6.109375 24.8125 6.109375 
Q 31.15625 6.109375 34.5625 8.28125 
Q 37.984375 10.453125 37.984375 14.40625 
Q 37.984375 18.0625 35.515625 20.015625 
Q 33.0625 21.96875 24.703125 23.78125 
L 21.578125 24.515625 
Q 13.234375 26.265625 9.515625 29.90625 
Q 5.8125 33.546875 5.8125 39.890625 
Q 5.8125 47.609375 11.28125 51.796875 
Q 16.75 56 26.8125 56 
Q 31.78125 56 36.171875 55.265625 
Q 40.578125 54.546875 44.28125 53.078125 
z
" id="DejaVuSans-73"/>
    </defs>
    <g transform="translate(532.22375 37.2)scale(0.16 -0.16)">
     <use xlink:href="#DejaVuSans-4c"/>
     <use x="55.697266" xlink:href="#DejaVuSans-6f"/>
     <use x="116.878906" xlink:href="#DejaVuSans-67"/>
     <use x="180.355469" xlink:href="#DejaVuSans-2d"/>
     <use x="216.439453" xlink:href="#DejaVuSans-4c"/>
     <use x="272.152344" xlink:href="#DejaVuSans-69"/>
     <use x="299.935547" xlink:href="#DejaVuSans-6b"/>
     <use x="357.798828" xlink:href="#DejaVuSans-65"/>
     <use x="419.322266" xlink:href="#DejaVuSans-6c"/>
     <use x="447.105469" xlink:href="#DejaVuSans-69"/>
     <use x="474.888672" xlink:href="#DejaVuSans-68"/>
     <use x="538.267578" xlink:href="#DejaVuSans-6f"/>
     <use x="599.449219" xlink:href="#DejaVuSans-6f"/>
     <use x="660.630859" xlink:href="#DejaVuSans-64"/>
     <use x="724.107422" xlink:href="#DejaVuSans-20"/>
     <use x="755.894531" xlink:href="#DejaVuSans-4f"/>
     <use x="834.605469" xlink:href="#DejaVuSans-70"/>
     <use x="898.082031" xlink:href="#DejaVuSans-74"/>
     <use x="937.291016" xlink:href="#DejaVuSans-69"/>
     <use x="965.074219" xlink:href="#DejaVuSans-6d"/>
     <use x="1062.486328" xlink:href="#DejaVuSans-69"/>
     <use x="1090.269531" xlink:href="#DejaVuSans-7a"/>
     <use x="1142.759766" xlink:href="#DejaVuSans-61"/>
     <use x="1204.039062" xlink:href="#DejaVuSans-74"/>
     <use x="1243.248047" xlink:href="#DejaVuSans-69"/>
     <use x="1271.03125" xlink:href="#DejaVuSans-6f"/>
     <use x="1332.212891" xlink:href="#DejaVuSans-6e"/>
     <use x="1395.591797" xlink:href="#DejaVuSans-20"/>
     <use x="1427.378906" xlink:href="#DejaVuSans-43"/>
     <use x="1497.203125" xlink:href="#DejaVuSans-6f"/>
     <use x="1558.384766" xlink:href="#DejaVuSans-73"/>
     <use x="1610.484375" xlink:href="#DejaVuSans-74"/>
    </g>
   </g>
   <g id="legend_1">
    <g id="patch_7">
     <path d="M 915 205.98125 
L 1152.4 205.98125 
Q 1156.4 205.98125 1156.4 201.98125 
L 1156.4 57.2 
Q 1156.4 53.2 1152.4 53.2 
L 915 53.2 
Q 911 53.2 911 57.2 
L 911 201.98125 
Q 911 205.98125 915 205.98125 
z
" style="fill:#ffffff;opacity:0.8;stroke:#cccccc;stroke-linejoin:miter;"/>
    </g>
    <g id="line2d_30">
     <path d="M 919 69.396875 
L 959 69.396875 
" style="fill:none;stroke:#1f77b4;stroke-linecap:square;stroke-width:4;"/>
    </g>
    <g id="line2d_31"/>
    <g id="text_16">
     <!-- $\theta = $[1.71718281] -->
     <defs>
      <path d="M 10.59375 45.40625 
L 73.1875 45.40625 
L 73.1875 37.203125 
L 10.59375 37.203125 
z
M 10.59375 25.484375 
L 73.1875 25.484375 
L 73.1875 17.1875 
L 10.59375 17.1875 
z
" id="DejaVuSans-3d"/>
      <path d="M 8.59375 75.984375 
L 29.296875 75.984375 
L 29.296875 69 
L 17.578125 69 
L 17.578125 -6.203125 
L 29.296875 -6.203125 
L 29.296875 -13.1875 
L 8.59375 -13.1875 
z
" id="DejaVuSans-5b"/>
      <path d="M 10.6875 12.40625 
L 21 12.40625 
L 21 0 
L 10.6875 0 
z
" id="DejaVuSans-2e"/>
      <path d="M 8.203125 72.90625 
L 55.078125 72.90625 
L 55.078125 68.703125 
L 28.609375 0 
L 18.3125 0 
L 43.21875 64.59375 
L 8.203125 64.59375 
z
" id="DejaVuSans-37"/>
      <path d="M 30.421875 75.984375 
L 30.421875 -13.1875 
L 9.71875 -13.1875 
L 9.71875 -6.203125 
L 21.390625 -6.203125 
L 21.390625 69 
L 9.71875 69 
L 9.71875 75.984375 
z
" id="DejaVuSans-5d"/>
     </defs>
     <g transform="translate(975 76.396875)scale(0.2 -0.2)">
      <use transform="translate(0 0.234375)" xlink:href="#DejaVuSans-Oblique-3b8"/>
      <use transform="translate(80.664062 0.234375)" xlink:href="#DejaVuSans-3d"/>
      <use transform="translate(183.935547 0.234375)" xlink:href="#DejaVuSans-5b"/>
      <use transform="translate(222.949219 0.234375)" xlink:href="#DejaVuSans-31"/>
      <use transform="translate(286.572266 0.234375)" xlink:href="#DejaVuSans-2e"/>
      <use transform="translate(318.25 0.234375)" xlink:href="#DejaVuSans-37"/>
      <use transform="translate(381.873047 0.234375)" xlink:href="#DejaVuSans-31"/>
      <use transform="translate(445.496094 0.234375)" xlink:href="#DejaVuSans-37"/>
      <use transform="translate(509.119141 0.234375)" xlink:href="#DejaVuSans-31"/>
      <use transform="translate(572.742188 0.234375)" xlink:href="#DejaVuSans-38"/>
      <use transform="translate(636.365234 0.234375)" xlink:href="#DejaVuSans-32"/>
      <use transform="translate(699.988281 0.234375)" xlink:href="#DejaVuSans-38"/>
      <use transform="translate(763.611328 0.234375)" xlink:href="#DejaVuSans-31"/>
      <use transform="translate(827.234375 0.234375)" xlink:href="#DejaVuSans-5d"/>
     </g>
    </g>
    <g id="line2d_32">
     <path d="M 919 98.753125 
L 959 98.753125 
" style="fill:none;stroke:#ff7f0e;stroke-linecap:square;stroke-width:4;"/>
    </g>
    <g id="line2d_33"/>
    <g id="text_17">
     <!-- $\theta = $[0.48614022] -->
     <g transform="translate(975 105.753125)scale(0.2 -0.2)">
      <use transform="translate(0 0.234375)" xlink:href="#DejaVuSans-Oblique-3b8"/>
      <use transform="translate(80.664062 0.234375)" xlink:href="#DejaVuSans-3d"/>
      <use transform="translate(183.935547 0.234375)" xlink:href="#DejaVuSans-5b"/>
      <use transform="translate(222.949219 0.234375)" xlink:href="#DejaVuSans-30"/>
      <use transform="translate(286.572266 0.234375)" xlink:href="#DejaVuSans-2e"/>
      <use transform="translate(318.359375 0.234375)" xlink:href="#DejaVuSans-34"/>
      <use transform="translate(381.982422 0.234375)" xlink:href="#DejaVuSans-38"/>
      <use transform="translate(445.605469 0.234375)" xlink:href="#DejaVuSans-36"/>
      <use transform="translate(509.228516 0.234375)" xlink:href="#DejaVuSans-31"/>
      <use transform="translate(572.851562 0.234375)" xlink:href="#DejaVuSans-34"/>
      <use transform="translate(636.474609 0.234375)" xlink:href="#DejaVuSans-30"/>
      <use transform="translate(700.097656 0.234375)" xlink:href="#DejaVuSans-32"/>
      <use transform="translate(763.720703 0.234375)" xlink:href="#DejaVuSans-32"/>
      <use transform="translate(827.34375 0.234375)" xlink:href="#DejaVuSans-5d"/>
     </g>
    </g>
    <g id="line2d_34">
     <path d="M 919 128.109375 
L 959 128.109375 
" style="fill:none;stroke:#2ca02c;stroke-linecap:square;stroke-width:4;"/>
    </g>
    <g id="line2d_35"/>
    <g id="text_18">
     <!-- $\theta = $[1.73762327] -->
     <defs>
      <path d="M 40.578125 39.3125 
Q 47.65625 37.796875 51.625 33 
Q 55.609375 28.21875 55.609375 21.1875 
Q 55.609375 10.40625 48.1875 4.484375 
Q 40.765625 -1.421875 27.09375 -1.421875 
Q 22.515625 -1.421875 17.65625 -0.515625 
Q 12.796875 0.390625 7.625 2.203125 
L 7.625 11.71875 
Q 11.71875 9.328125 16.59375 8.109375 
Q 21.484375 6.890625 26.8125 6.890625 
Q 36.078125 6.890625 40.9375 10.546875 
Q 45.796875 14.203125 45.796875 21.1875 
Q 45.796875 27.640625 41.28125 31.265625 
Q 36.765625 34.90625 28.71875 34.90625 
L 20.21875 34.90625 
L 20.21875 43.015625 
L 29.109375 43.015625 
Q 36.375 43.015625 40.234375 45.921875 
Q 44.09375 48.828125 44.09375 54.296875 
Q 44.09375 59.90625 40.109375 62.90625 
Q 36.140625 65.921875 28.71875 65.921875 
Q 24.65625 65.921875 20.015625 65.03125 
Q 15.375 64.15625 9.8125 62.3125 
L 9.8125 71.09375 
Q 15.4375 72.65625 20.34375 73.4375 
Q 25.25 74.21875 29.59375 74.21875 
Q 40.828125 74.21875 47.359375 69.109375 
Q 53.90625 64.015625 53.90625 55.328125 
Q 53.90625 49.265625 50.4375 45.09375 
Q 46.96875 40.921875 40.578125 39.3125 
z
" id="DejaVuSans-33"/>
     </defs>
     <g transform="translate(975 135.109375)scale(0.2 -0.2)">
      <use transform="translate(0 0.234375)" xlink:href="#DejaVuSans-Oblique-3b8"/>
      <use transform="translate(80.664062 0.234375)" xlink:href="#DejaVuSans-3d"/>
      <use transform="translate(183.935547 0.234375)" xlink:href="#DejaVuSans-5b"/>
      <use transform="translate(222.949219 0.234375)" xlink:href="#DejaVuSans-31"/>
      <use transform="translate(286.572266 0.234375)" xlink:href="#DejaVuSans-2e"/>
      <use transform="translate(318.25 0.234375)" xlink:href="#DejaVuSans-37"/>
      <use transform="translate(381.873047 0.234375)" xlink:href="#DejaVuSans-33"/>
      <use transform="translate(445.496094 0.234375)" xlink:href="#DejaVuSans-37"/>
      <use transform="translate(509.119141 0.234375)" xlink:href="#DejaVuSans-36"/>
      <use transform="translate(572.742188 0.234375)" xlink:href="#DejaVuSans-32"/>
      <use transform="translate(636.365234 0.234375)" xlink:href="#DejaVuSans-33"/>
      <use transform="translate(699.988281 0.234375)" xlink:href="#DejaVuSans-32"/>
      <use transform="translate(763.611328 0.234375)" xlink:href="#DejaVuSans-37"/>
      <use transform="translate(827.234375 0.234375)" xlink:href="#DejaVuSans-5d"/>
     </g>
    </g>
    <g id="line2d_36">
     <path d="M 919 157.465625 
L 959 157.465625 
" style="fill:none;stroke:#d62728;stroke-linecap:square;stroke-width:4;"/>
    </g>
    <g id="line2d_37"/>
    <g id="text_19">
     <!-- $\theta = $[1.6530542] -->
     <defs>
      <path d="M 10.796875 72.90625 
L 49.515625 72.90625 
L 49.515625 64.59375 
L 19.828125 64.59375 
L 19.828125 46.734375 
Q 21.96875 47.46875 24.109375 47.828125 
Q 26.265625 48.1875 28.421875 48.1875 
Q 40.625 48.1875 47.75 41.5 
Q 54.890625 34.8125 54.890625 23.390625 
Q 54.890625 11.625 47.5625 5.09375 
Q 40.234375 -1.421875 26.90625 -1.421875 
Q 22.3125 -1.421875 17.546875 -0.640625 
Q 12.796875 0.140625 7.71875 1.703125 
L 7.71875 11.625 
Q 12.109375 9.234375 16.796875 8.0625 
Q 21.484375 6.890625 26.703125 6.890625 
Q 35.15625 6.890625 40.078125 11.328125 
Q 45.015625 15.765625 45.015625 23.390625 
Q 45.015625 31 40.078125 35.4375 
Q 35.15625 39.890625 26.703125 39.890625 
Q 22.75 39.890625 18.8125 39.015625 
Q 14.890625 38.140625 10.796875 36.28125 
z
" id="DejaVuSans-35"/>
     </defs>
     <g transform="translate(975 164.465625)scale(0.2 -0.2)">
      <use transform="translate(0 0.234375)" xlink:href="#DejaVuSans-Oblique-3b8"/>
      <use transform="translate(80.664062 0.234375)" xlink:href="#DejaVuSans-3d"/>
      <use transform="translate(183.935547 0.234375)" xlink:href="#DejaVuSans-5b"/>
      <use transform="translate(222.949219 0.234375)" xlink:href="#DejaVuSans-31"/>
      <use transform="translate(286.572266 0.234375)" xlink:href="#DejaVuSans-2e"/>
      <use transform="translate(318.359375 0.234375)" xlink:href="#DejaVuSans-36"/>
      <use transform="translate(381.982422 0.234375)" xlink:href="#DejaVuSans-35"/>
      <use transform="translate(445.605469 0.234375)" xlink:href="#DejaVuSans-33"/>
      <use transform="translate(509.228516 0.234375)" xlink:href="#DejaVuSans-30"/>
      <use transform="translate(572.851562 0.234375)" xlink:href="#DejaVuSans-35"/>
      <use transform="translate(636.474609 0.234375)" xlink:href="#DejaVuSans-34"/>
      <use transform="translate(700.097656 0.234375)" xlink:href="#DejaVuSans-32"/>
      <use transform="translate(763.720703 0.234375)" xlink:href="#DejaVuSans-5d"/>
     </g>
    </g>
    <g id="line2d_38">
     <path d="M 919 186.821875 
L 959 186.821875 
" style="fill:none;stroke:#9467bd;stroke-linecap:square;stroke-width:4;"/>
    </g>
    <g id="line2d_39"/>
    <g id="text_20">
     <!-- $\theta = $[0.15478165] -->
     <g transform="translate(975 193.821875)scale(0.2 -0.2)">
      <use transform="translate(0 0.234375)" xlink:href="#DejaVuSans-Oblique-3b8"/>
      <use transform="translate(80.664062 0.234375)" xlink:href="#DejaVuSans-3d"/>
      <use transform="translate(183.935547 0.234375)" xlink:href="#DejaVuSans-5b"/>
      <use transform="translate(222.949219 0.234375)" xlink:href="#DejaVuSans-30"/>
      <use transform="translate(286.572266 0.234375)" xlink:href="#DejaVuSans-2e"/>
      <use transform="translate(318.359375 0.234375)" xlink:href="#DejaVuSans-31"/>
      <use transform="translate(381.982422 0.234375)" xlink:href="#DejaVuSans-35"/>
      <use transform="translate(445.605469 0.234375)" xlink:href="#DejaVuSans-34"/>
      <use transform="translate(509.228516 0.234375)" xlink:href="#DejaVuSans-37"/>
      <use transform="translate(572.851562 0.234375)" xlink:href="#DejaVuSans-38"/>
      <use transform="translate(636.474609 0.234375)" xlink:href="#DejaVuSans-31"/>
      <use transform="translate(700.097656 0.234375)" xlink:href="#DejaVuSans-36"/>
      <use transform="translate(763.720703 0.234375)" xlink:href="#DejaVuSans-35"/>
      <use transform="translate(827.34375 0.234375)" xlink:href="#DejaVuSans-5d"/>
     </g>
    </g>
   </g>
  </g>
 </g>
 <defs>
  <clipPath id="p625237f48f">
   <rect height="271.8" width="1004.4" x="162" y="43.2"/>
  </clipPath>
 </defs>
</svg>
