<?xml version="1.0" encoding="utf-8" standalone="no"?>
<!DOCTYPE svg PUBLIC "-//W3C//DTD SVG 1.1//EN"
  "http://www.w3.org/Graphics/SVG/1.1/DTD/svg11.dtd">
<!-- Created with matplotlib (http://matplotlib.org/) -->
<svg height="360pt" version="1.1" viewBox="0 0 1296 360" width="1296pt" xmlns="http://www.w3.org/2000/svg" xmlns:xlink="http://www.w3.org/1999/xlink">
 <defs>
  <style type="text/css">
*{stroke-linecap:butt;stroke-linejoin:round;}
  </style>
 </defs>
 <g id="figure_1">
  <g id="patch_1">
   <path d="M 0 360 
L 1296 360 
L 1296 0 
L 0 0 
z
" style="fill:#ffffff;"/>
  </g>
  <g id="axes_1">
   <g id="patch_2">
    <path d="M 162 315 
L 618.545455 315 
L 618.545455 43.2 
L 162 43.2 
z
" style="fill:#ffffff;"/>
   </g>
   <g id="matplotlib.axis_1">
    <g id="xtick_1">
     <g id="line2d_1">
      <path clip-path="url(#p30c53efc9c)" d="M 182.752066 315 
L 182.752066 43.2 
" style="fill:none;stroke:#b0b0b0;stroke-linecap:square;stroke-width:0.8;"/>
     </g>
     <g id="line2d_2">
      <defs>
       <path d="M 0 0 
L 0 3.5 
" id="ma0e6cf512a" style="stroke:#000000;stroke-width:0.8;"/>
      </defs>
      <g>
       <use style="stroke:#000000;stroke-width:0.8;" x="182.752066" xlink:href="#ma0e6cf512a" y="315"/>
      </g>
     </g>
     <g id="text_1">
      <!-- −3 -->
      <defs>
       <path d="M 10.59375 35.5 
L 73.1875 35.5 
L 73.1875 27.203125 
L 10.59375 27.203125 
z
" id="DejaVuSans-2212"/>
       <path d="M 40.578125 39.3125 
Q 47.65625 37.796875 51.625 33 
Q 55.609375 28.21875 55.609375 21.1875 
Q 55.609375 10.40625 48.1875 4.484375 
Q 40.765625 -1.421875 27.09375 -1.421875 
Q 22.515625 -1.421875 17.65625 -0.515625 
Q 12.796875 0.390625 7.625 2.203125 
L 7.625 11.71875 
Q 11.71875 9.328125 16.59375 8.109375 
Q 21.484375 6.890625 26.8125 6.890625 
Q 36.078125 6.890625 40.9375 10.546875 
Q 45.796875 14.203125 45.796875 21.1875 
Q 45.796875 27.640625 41.28125 31.265625 
Q 36.765625 34.90625 28.71875 34.90625 
L 20.21875 34.90625 
L 20.21875 43.015625 
L 29.109375 43.015625 
Q 36.375 43.015625 40.234375 45.921875 
Q 44.09375 48.828125 44.09375 54.296875 
Q 44.09375 59.90625 40.109375 62.90625 
Q 36.140625 65.921875 28.71875 65.921875 
Q 24.65625 65.921875 20.015625 65.03125 
Q 15.375 64.15625 9.8125 62.3125 
L 9.8125 71.09375 
Q 15.4375 72.65625 20.34375 73.4375 
Q 25.25 74.21875 29.59375 74.21875 
Q 40.828125 74.21875 47.359375 69.109375 
Q 53.90625 64.015625 53.90625 55.328125 
Q 53.90625 49.265625 50.4375 45.09375 
Q 46.96875 40.921875 40.578125 39.3125 
z
" id="DejaVuSans-33"/>
      </defs>
      <g transform="translate(168.009879 337.196875)scale(0.2 -0.2)">
       <use xlink:href="#DejaVuSans-2212"/>
       <use x="83.789062" xlink:href="#DejaVuSans-33"/>
      </g>
     </g>
    </g>
    <g id="xtick_2">
     <g id="line2d_3">
      <path clip-path="url(#p30c53efc9c)" d="M 251.92562 315 
L 251.92562 43.2 
" style="fill:none;stroke:#b0b0b0;stroke-linecap:square;stroke-width:0.8;"/>
     </g>
     <g id="line2d_4">
      <g>
       <use style="stroke:#000000;stroke-width:0.8;" x="251.92562" xlink:href="#ma0e6cf512a" y="315"/>
      </g>
     </g>
     <g id="text_2">
      <!-- −2 -->
      <defs>
       <path d="M 19.1875 8.296875 
L 53.609375 8.296875 
L 53.609375 0 
L 7.328125 0 
L 7.328125 8.296875 
Q 12.9375 14.109375 22.625 23.890625 
Q 32.328125 33.6875 34.8125 36.53125 
Q 39.546875 41.84375 41.421875 45.53125 
Q 43.3125 49.21875 43.3125 52.78125 
Q 43.3125 58.59375 39.234375 62.25 
Q 35.15625 65.921875 28.609375 65.921875 
Q 23.96875 65.921875 18.8125 64.3125 
Q 13.671875 62.703125 7.8125 59.421875 
L 7.8125 69.390625 
Q 13.765625 71.78125 18.9375 73 
Q 24.125 74.21875 28.421875 74.21875 
Q 39.75 74.21875 46.484375 68.546875 
Q 53.21875 62.890625 53.21875 53.421875 
Q 53.21875 48.921875 51.53125 44.890625 
Q 49.859375 40.875 45.40625 35.40625 
Q 44.1875 33.984375 37.640625 27.21875 
Q 31.109375 20.453125 19.1875 8.296875 
z
" id="DejaVuSans-32"/>
      </defs>
      <g transform="translate(237.183432 337.196875)scale(0.2 -0.2)">
       <use xlink:href="#DejaVuSans-2212"/>
       <use x="83.789062" xlink:href="#DejaVuSans-32"/>
      </g>
     </g>
    </g>
    <g id="xtick_3">
     <g id="line2d_5">
      <path clip-path="url(#p30c53efc9c)" d="M 321.099174 315 
L 321.099174 43.2 
" style="fill:none;stroke:#b0b0b0;stroke-linecap:square;stroke-width:0.8;"/>
     </g>
     <g id="line2d_6">
      <g>
       <use style="stroke:#000000;stroke-width:0.8;" x="321.099174" xlink:href="#ma0e6cf512a" y="315"/>
      </g>
     </g>
     <g id="text_3">
      <!-- −1 -->
      <defs>
       <path d="M 12.40625 8.296875 
L 28.515625 8.296875 
L 28.515625 63.921875 
L 10.984375 60.40625 
L 10.984375 69.390625 
L 28.421875 72.90625 
L 38.28125 72.90625 
L 38.28125 8.296875 
L 54.390625 8.296875 
L 54.390625 0 
L 12.40625 0 
z
" id="DejaVuSans-31"/>
      </defs>
      <g transform="translate(306.356986 337.196875)scale(0.2 -0.2)">
       <use xlink:href="#DejaVuSans-2212"/>
       <use x="83.789062" xlink:href="#DejaVuSans-31"/>
      </g>
     </g>
    </g>
    <g id="xtick_4">
     <g id="line2d_7">
      <path clip-path="url(#p30c53efc9c)" d="M 390.272727 315 
L 390.272727 43.2 
" style="fill:none;stroke:#b0b0b0;stroke-linecap:square;stroke-width:0.8;"/>
     </g>
     <g id="line2d_8">
      <g>
       <use style="stroke:#000000;stroke-width:0.8;" x="390.272727" xlink:href="#ma0e6cf512a" y="315"/>
      </g>
     </g>
     <g id="text_4">
      <!-- 0 -->
      <defs>
       <path d="M 31.78125 66.40625 
Q 24.171875 66.40625 20.328125 58.90625 
Q 16.5 51.421875 16.5 36.375 
Q 16.5 21.390625 20.328125 13.890625 
Q 24.171875 6.390625 31.78125 6.390625 
Q 39.453125 6.390625 43.28125 13.890625 
Q 47.125 21.390625 47.125 36.375 
Q 47.125 51.421875 43.28125 58.90625 
Q 39.453125 66.40625 31.78125 66.40625 
z
M 31.78125 74.21875 
Q 44.046875 74.21875 50.515625 64.515625 
Q 56.984375 54.828125 56.984375 36.375 
Q 56.984375 17.96875 50.515625 8.265625 
Q 44.046875 -1.421875 31.78125 -1.421875 
Q 19.53125 -1.421875 13.0625 8.265625 
Q 6.59375 17.96875 6.59375 36.375 
Q 6.59375 54.828125 13.0625 64.515625 
Q 19.53125 74.21875 31.78125 74.21875 
z
" id="DejaVuSans-30"/>
      </defs>
      <g transform="translate(383.910227 337.196875)scale(0.2 -0.2)">
       <use xlink:href="#DejaVuSans-30"/>
      </g>
     </g>
    </g>
    <g id="xtick_5">
     <g id="line2d_9">
      <path clip-path="url(#p30c53efc9c)" d="M 459.446281 315 
L 459.446281 43.2 
" style="fill:none;stroke:#b0b0b0;stroke-linecap:square;stroke-width:0.8;"/>
     </g>
     <g id="line2d_10">
      <g>
       <use style="stroke:#000000;stroke-width:0.8;" x="459.446281" xlink:href="#ma0e6cf512a" y="315"/>
      </g>
     </g>
     <g id="text_5">
      <!-- 1 -->
      <g transform="translate(453.083781 337.196875)scale(0.2 -0.2)">
       <use xlink:href="#DejaVuSans-31"/>
      </g>
     </g>
    </g>
    <g id="xtick_6">
     <g id="line2d_11">
      <path clip-path="url(#p30c53efc9c)" d="M 528.619835 315 
L 528.619835 43.2 
" style="fill:none;stroke:#b0b0b0;stroke-linecap:square;stroke-width:0.8;"/>
     </g>
     <g id="line2d_12">
      <g>
       <use style="stroke:#000000;stroke-width:0.8;" x="528.619835" xlink:href="#ma0e6cf512a" y="315"/>
      </g>
     </g>
     <g id="text_6">
      <!-- 2 -->
      <g transform="translate(522.257335 337.196875)scale(0.2 -0.2)">
       <use xlink:href="#DejaVuSans-32"/>
      </g>
     </g>
    </g>
    <g id="xtick_7">
     <g id="line2d_13">
      <path clip-path="url(#p30c53efc9c)" d="M 597.793388 315 
L 597.793388 43.2 
" style="fill:none;stroke:#b0b0b0;stroke-linecap:square;stroke-width:0.8;"/>
     </g>
     <g id="line2d_14">
      <g>
       <use style="stroke:#000000;stroke-width:0.8;" x="597.793388" xlink:href="#ma0e6cf512a" y="315"/>
      </g>
     </g>
     <g id="text_7">
      <!-- 3 -->
      <g transform="translate(591.430888 337.196875)scale(0.2 -0.2)">
       <use xlink:href="#DejaVuSans-33"/>
      </g>
     </g>
    </g>
    <g id="text_8">
     <!-- x -->
     <defs>
      <path d="M 54.890625 54.6875 
L 35.109375 28.078125 
L 55.90625 0 
L 45.3125 0 
L 29.390625 21.484375 
L 13.484375 0 
L 2.875 0 
L 24.125 28.609375 
L 4.6875 54.6875 
L 15.28125 54.6875 
L 29.78125 35.203125 
L 44.28125 54.6875 
z
" id="DejaVuSans-78"/>
     </defs>
     <g transform="translate(385.537727 357.51375)scale(0.16 -0.16)">
      <use xlink:href="#DejaVuSans-78"/>
     </g>
    </g>
   </g>
   <g id="matplotlib.axis_2">
    <g id="ytick_1">
     <g id="line2d_15">
      <path clip-path="url(#p30c53efc9c)" d="M 162 305.217063 
L 618.545455 305.217063 
" style="fill:none;stroke:#b0b0b0;stroke-linecap:square;stroke-width:0.8;"/>
     </g>
     <g id="line2d_16">
      <defs>
       <path d="M 0 0 
L -3.5 0 
" id="m047f238047" style="stroke:#000000;stroke-width:0.8;"/>
      </defs>
      <g>
       <use style="stroke:#000000;stroke-width:0.8;" x="162" xlink:href="#m047f238047" y="305.217063"/>
      </g>
     </g>
     <g id="text_9">
      <!-- −2 -->
      <g transform="translate(125.515625 312.815501)scale(0.2 -0.2)">
       <use xlink:href="#DejaVuSans-2212"/>
       <use x="83.789062" xlink:href="#DejaVuSans-32"/>
      </g>
     </g>
    </g>
    <g id="ytick_2">
     <g id="line2d_17">
      <path clip-path="url(#p30c53efc9c)" d="M 162 240.676011 
L 618.545455 240.676011 
" style="fill:none;stroke:#b0b0b0;stroke-linecap:square;stroke-width:0.8;"/>
     </g>
     <g id="line2d_18">
      <g>
       <use style="stroke:#000000;stroke-width:0.8;" x="162" xlink:href="#m047f238047" y="240.676011"/>
      </g>
     </g>
     <g id="text_10">
      <!-- −1 -->
      <g transform="translate(125.515625 248.274448)scale(0.2 -0.2)">
       <use xlink:href="#DejaVuSans-2212"/>
       <use x="83.789062" xlink:href="#DejaVuSans-31"/>
      </g>
     </g>
    </g>
    <g id="ytick_3">
     <g id="line2d_19">
      <path clip-path="url(#p30c53efc9c)" d="M 162 176.134959 
L 618.545455 176.134959 
" style="fill:none;stroke:#b0b0b0;stroke-linecap:square;stroke-width:0.8;"/>
     </g>
     <g id="line2d_20">
      <g>
       <use style="stroke:#000000;stroke-width:0.8;" x="162" xlink:href="#m047f238047" y="176.134959"/>
      </g>
     </g>
     <g id="text_11">
      <!-- 0 -->
      <g transform="translate(142.275 183.733396)scale(0.2 -0.2)">
       <use xlink:href="#DejaVuSans-30"/>
      </g>
     </g>
    </g>
    <g id="ytick_4">
     <g id="line2d_21">
      <path clip-path="url(#p30c53efc9c)" d="M 162 111.593907 
L 618.545455 111.593907 
" style="fill:none;stroke:#b0b0b0;stroke-linecap:square;stroke-width:0.8;"/>
     </g>
     <g id="line2d_22">
      <g>
       <use style="stroke:#000000;stroke-width:0.8;" x="162" xlink:href="#m047f238047" y="111.593907"/>
      </g>
     </g>
     <g id="text_12">
      <!-- 1 -->
      <g transform="translate(142.275 119.192344)scale(0.2 -0.2)">
       <use xlink:href="#DejaVuSans-31"/>
      </g>
     </g>
    </g>
    <g id="ytick_5">
     <g id="line2d_23">
      <path clip-path="url(#p30c53efc9c)" d="M 162 47.052855 
L 618.545455 47.052855 
" style="fill:none;stroke:#b0b0b0;stroke-linecap:square;stroke-width:0.8;"/>
     </g>
     <g id="line2d_24">
      <g>
       <use style="stroke:#000000;stroke-width:0.8;" x="162" xlink:href="#m047f238047" y="47.052855"/>
      </g>
     </g>
     <g id="text_13">
      <!-- 2 -->
      <g transform="translate(142.275 54.651292)scale(0.2 -0.2)">
       <use xlink:href="#DejaVuSans-32"/>
      </g>
     </g>
    </g>
    <g id="text_14">
     <!-- y(x) -->
     <defs>
      <path d="M 32.171875 -5.078125 
Q 28.375 -14.84375 24.75 -17.8125 
Q 21.140625 -20.796875 15.09375 -20.796875 
L 7.90625 -20.796875 
L 7.90625 -13.28125 
L 13.1875 -13.28125 
Q 16.890625 -13.28125 18.9375 -11.515625 
Q 21 -9.765625 23.484375 -3.21875 
L 25.09375 0.875 
L 2.984375 54.6875 
L 12.5 54.6875 
L 29.59375 11.921875 
L 46.6875 54.6875 
L 56.203125 54.6875 
z
" id="DejaVuSans-79"/>
      <path d="M 31 75.875 
Q 24.46875 64.65625 21.28125 53.65625 
Q 18.109375 42.671875 18.109375 31.390625 
Q 18.109375 20.125 21.3125 9.0625 
Q 24.515625 -2 31 -13.1875 
L 23.1875 -13.1875 
Q 15.875 -1.703125 12.234375 9.375 
Q 8.59375 20.453125 8.59375 31.390625 
Q 8.59375 42.28125 12.203125 53.3125 
Q 15.828125 64.359375 23.1875 75.875 
z
" id="DejaVuSans-28"/>
      <path d="M 8.015625 75.875 
L 15.828125 75.875 
Q 23.140625 64.359375 26.78125 53.3125 
Q 30.421875 42.28125 30.421875 31.390625 
Q 30.421875 20.453125 26.78125 9.375 
Q 23.140625 -1.703125 15.828125 -13.1875 
L 8.015625 -13.1875 
Q 14.5 -2 17.703125 9.0625 
Q 20.90625 20.125 20.90625 31.390625 
Q 20.90625 42.671875 17.703125 53.65625 
Q 14.5 64.65625 8.015625 75.875 
z
" id="DejaVuSans-29"/>
     </defs>
     <g transform="translate(118.188125 194.8125)rotate(-90)scale(0.16 -0.16)">
      <use xlink:href="#DejaVuSans-79"/>
      <use x="59.179688" xlink:href="#DejaVuSans-28"/>
      <use x="98.193359" xlink:href="#DejaVuSans-78"/>
      <use x="157.373047" xlink:href="#DejaVuSans-29"/>
     </g>
    </g>
   </g>
   <g id="line2d_25">
    <path clip-path="url(#p30c53efc9c)" d="M 182.752066 175.92188 
L 192.444441 173.976364 
L 194.867534 173.826791 
L 196.944472 173.922075 
L 199.021409 174.254561 
L 201.098346 174.833682 
L 203.175284 175.645155 
L 205.598377 176.829662 
L 213.213815 180.764082 
L 214.944596 181.303759 
L 216.329221 181.538922 
L 217.713846 181.567462 
L 219.09847 181.366345 
L 220.483095 180.920336 
L 221.86772 180.223504 
L 223.252345 179.280458 
L 224.983126 177.780949 
L 226.713908 175.979966 
L 229.137001 173.120368 
L 232.94472 168.569342 
L 234.675501 166.831452 
L 236.060126 165.735355 
L 237.098595 165.133143 
L 238.137063 164.750523 
L 239.175532 164.611789 
L 240.214001 164.736884 
L 241.252469 165.140604 
L 242.290938 165.831874 
L 243.329407 166.813137 
L 244.367875 168.079856 
L 245.7525 170.191278 
L 247.137125 172.739339 
L 248.867906 176.42596 
L 251.637156 183.013152 
L 254.406406 189.544123 
L 256.137187 193.078036 
L 257.521812 195.364171 
L 258.560281 196.671414 
L 259.59875 197.57068 
L 260.291062 197.920711 
L 260.983375 198.057534 
L 261.675687 197.971548 
L 262.368 197.655197 
L 263.060312 197.103123 
L 263.752624 196.312317 
L 264.791093 194.677996 
L 265.829562 192.514973 
L 266.868031 189.845772 
L 268.252655 185.563923 
L 269.63728 180.570926 
L 271.714218 172.114583 
L 276.560405 151.752987 
L 277.94503 146.913379 
L 278.983499 143.864219 
L 280.021967 141.422705 
L 280.71428 140.176772 
L 281.406592 139.263649 
L 282.098905 138.703675 
L 282.791217 138.514037 
L 283.48353 138.708476 
L 284.175842 139.297031 
L 284.868155 140.285808 
L 285.560467 141.676793 
L 286.25278 143.467701 
L 287.291248 146.888134 
L 288.329717 151.151141 
L 289.714342 158.032639 
L 291.098967 166.08554 
L 293.175904 179.745415 
L 298.022091 212.636564 
L 299.406716 220.469578 
L 300.445185 225.425317 
L 301.483654 229.424908 
L 302.175966 231.493508 
L 302.868279 233.043154 
L 303.560591 234.044167 
L 303.906747 234.331054 
L 304.252904 234.472 
L 304.59906 234.464806 
L 304.945216 234.307639 
L 305.291372 233.999044 
L 305.983685 232.923688 
L 306.675997 231.234955 
L 307.36831 228.935556 
L 308.406778 224.363702 
L 309.445247 218.500091 
L 310.483716 211.437906 
L 311.868341 200.378712 
L 313.599122 184.465258 
L 316.714528 152.881411 
L 319.137622 129.201438 
L 320.522247 117.385586 
L 321.906871 107.524468 
L 322.94534 101.713642 
L 323.637653 98.696807 
L 324.329965 96.419396 
L 325.022278 94.919659 
L 325.368434 94.471311 
L 325.71459 94.228258 
L 326.060746 94.193068 
L 326.406902 94.36778 
L 326.753059 94.753889 
L 327.445371 96.163531 
L 328.137684 98.422847 
L 328.829996 101.523611 
L 329.868465 107.711947 
L 330.906933 115.655232 
L 331.945402 125.211442 
L 333.330027 140.137123 
L 335.060808 161.519259 
L 338.868527 212.898879 
L 340.945464 238.934287 
L 342.330089 253.819428 
L 343.368558 263.186984 
L 344.407027 270.729536 
L 345.099339 274.635894 
L 345.791651 277.581554 
L 346.483964 279.523114 
L 346.83012 280.106558 
L 347.176276 280.427333 
L 347.522433 280.482952 
L 347.868589 280.271618 
L 348.214745 279.792233 
L 348.560901 279.044407 
L 349.253214 276.74543 
L 349.945526 273.385853 
L 350.637839 268.988292 
L 351.676307 260.523057 
L 352.714776 249.962427 
L 354.099401 232.999352 
L 355.830182 208.08775 
L 358.253276 169.089426 
L 361.368682 119.073627 
L 363.099463 94.934105 
L 364.484088 78.95678 
L 365.522557 69.398897 
L 366.561025 62.199786 
L 367.253338 58.809102 
L 367.94565 56.597416 
L 368.291807 55.943831 
L 368.637963 55.595583 
L 368.984119 55.554545 
L 369.330275 55.821781 
L 369.676431 56.397537 
L 370.022588 57.281239 
L 370.7149 59.966092 
L 371.407213 63.855394 
L 372.099525 68.915269 
L 373.137994 78.594803 
L 374.176462 90.592757 
L 375.561087 109.731175 
L 377.291869 137.600833 
L 380.061118 187.039903 
L 382.830368 235.298642 
L 384.561149 261.2689 
L 385.945774 278.292879 
L 386.984243 288.388296 
L 388.022712 295.920914 
L 388.715024 299.427652 
L 389.407337 301.677118 
L 389.753493 302.32239 
L 390.099649 302.645455 
L 390.445805 302.645455 
L 390.791962 302.32239 
L 391.138118 301.677118 
L 391.83043 299.427652 
L 392.522743 295.920914 
L 393.215055 291.194082 
L 394.253524 281.929139 
L 395.291993 270.255096 
L 396.676618 251.429215 
L 398.407399 223.796051 
L 401.176649 174.465924 
L 403.945898 126.021626 
L 405.67668 99.750776 
L 407.061305 82.348478 
L 408.099773 71.870117 
L 409.138242 63.855394 
L 409.830554 59.966092 
L 410.522867 57.281239 
L 410.869023 56.397537 
L 411.215179 55.821781 
L 411.561336 55.554545 
L 411.907492 55.595583 
L 412.253648 55.943831 
L 412.599804 56.597416 
L 413.292117 58.809102 
L 413.984429 62.199786 
L 414.676742 66.726352 
L 415.71521 75.523006 
L 416.753679 86.518651 
L 418.138304 104.109295 
L 419.869085 129.692553 
L 422.984491 180.493087 
L 425.407585 218.465738 
L 427.138366 241.861593 
L 428.522991 257.226149 
L 429.56146 266.410442 
L 430.599928 273.385853 
L 431.292241 276.74543 
L 431.984553 279.044407 
L 432.330709 279.792233 
L 432.676866 280.271618 
L 433.023022 280.482952 
L 433.369178 280.427333 
L 433.715334 280.106558 
L 434.061491 279.523114 
L 434.753803 277.581554 
L 435.446116 274.635894 
L 436.138428 270.729536 
L 437.176897 263.186984 
L 438.215365 253.819428 
L 439.59999 238.934287 
L 441.330772 217.458886 
L 447.561584 136.195899 
L 448.946209 121.85738 
L 449.984677 112.820338 
L 451.023146 105.44844 
L 452.061615 99.86892 
L 452.753927 97.18728 
L 453.44624 95.352342 
L 454.138552 94.36778 
L 454.484708 94.193068 
L 454.830865 94.228258 
L 455.177021 94.471311 
L 455.523177 94.919659 
L 456.215489 96.419396 
L 456.907802 98.696807 
L 457.600114 101.713642 
L 458.638583 107.524468 
L 459.677052 114.716377 
L 461.061677 126.093969 
L 462.792458 142.413255 
L 468.677114 200.378712 
L 470.061739 211.437906 
L 471.446364 220.593086 
L 472.484832 226.034824 
L 473.523301 230.161162 
L 474.215614 232.155978 
L 474.907926 233.537951 
L 475.600238 234.307639 
L 475.946395 234.464806 
L 476.292551 234.472 
L 476.638707 234.331054 
L 477.33102 233.613899 
L 478.023332 232.33517 
L 478.715645 230.522033 
L 479.754113 226.871725 
L 480.792582 222.218753 
L 482.177207 214.708131 
L 483.907988 203.763254 
L 490.484956 159.945733 
L 491.869581 152.749018 
L 492.90805 148.218202 
L 493.946519 144.511218 
L 494.984987 141.676793 
L 495.6773 140.285808 
L 496.369612 139.297031 
L 497.061925 138.708476 
L 497.754237 138.514037 
L 498.44655 138.703675 
L 499.138862 139.263649 
L 499.831175 140.176772 
L 500.523487 141.422705 
L 501.561956 143.864219 
L 502.600425 146.913379 
L 503.98505 151.752987 
L 505.715831 158.689722 
L 511.600487 183.147029 
L 512.985112 187.802398 
L 514.369736 191.679976 
L 515.408205 194.014901 
L 516.446674 195.82712 
L 517.485143 197.103123 
L 518.177455 197.655197 
L 518.869768 197.971548 
L 519.56208 198.057534 
L 520.254392 197.920711 
L 520.946705 197.57068 
L 521.639017 197.018907 
L 522.677486 195.842135 
L 523.715955 194.291698 
L 525.10058 191.740938 
L 526.831361 187.979554 
L 530.292923 179.657883 
L 532.716017 174.155372 
L 534.446798 170.78979 
L 535.831423 168.563696 
L 537.216048 166.813137 
L 538.254517 165.831874 
L 539.292985 165.140604 
L 540.331454 164.736884 
L 541.369923 164.611789 
L 542.408391 164.750523 
L 543.44686 165.133143 
L 544.485329 165.735355 
L 545.869954 166.831452 
L 547.600735 168.569342 
L 550.023828 171.417091 
L 554.177703 176.36056 
L 555.908484 178.107221 
L 557.639266 179.538627 
L 559.02389 180.421164 
L 560.408515 181.055293 
L 561.79314 181.439137 
L 563.177765 181.581079 
L 564.56239 181.498454 
L 565.947015 181.21599 
L 567.677796 180.628586 
L 569.754734 179.669847 
L 573.562452 177.582442 
L 576.677858 175.96102 
L 579.100952 174.953556 
L 581.177889 174.334026 
L 583.254827 173.960497 
L 585.331764 173.827215 
L 587.408701 173.908356 
L 589.831795 174.219463 
L 593.293357 174.917061 
L 597.793388 175.92188 
L 597.793388 175.92188 
" style="fill:none;stroke:#ff0000;stroke-linecap:square;stroke-width:4;"/>
   </g>
   <g id="patch_3">
    <path d="M 162 315 
L 162 43.2 
" style="fill:none;stroke:#000000;stroke-linecap:square;stroke-linejoin:miter;stroke-width:0.8;"/>
   </g>
   <g id="patch_4">
    <path d="M 618.545455 315 
L 618.545455 43.2 
" style="fill:none;stroke:#000000;stroke-linecap:square;stroke-linejoin:miter;stroke-width:0.8;"/>
   </g>
   <g id="patch_5">
    <path d="M 162 315 
L 618.545455 315 
" style="fill:none;stroke:#000000;stroke-linecap:square;stroke-linejoin:miter;stroke-width:0.8;"/>
   </g>
   <g id="patch_6">
    <path d="M 162 43.2 
L 618.545455 43.2 
" style="fill:none;stroke:#000000;stroke-linecap:square;stroke-linejoin:miter;stroke-width:0.8;"/>
   </g>
   <g id="text_15">
    <!-- $H_{50}(x)e^{-x^2/2}$ -->
    <defs>
     <path d="M 16.890625 72.90625 
L 26.8125 72.90625 
L 21 43.015625 
L 56.78125 43.015625 
L 62.59375 72.90625 
L 72.515625 72.90625 
L 58.296875 0 
L 48.390625 0 
L 55.171875 34.71875 
L 19.390625 34.71875 
L 12.59375 0 
L 2.6875 0 
z
" id="DejaVuSans-Oblique-48"/>
     <path d="M 10.796875 72.90625 
L 49.515625 72.90625 
L 49.515625 64.59375 
L 19.828125 64.59375 
L 19.828125 46.734375 
Q 21.96875 47.46875 24.109375 47.828125 
Q 26.265625 48.1875 28.421875 48.1875 
Q 40.625 48.1875 47.75 41.5 
Q 54.890625 34.8125 54.890625 23.390625 
Q 54.890625 11.625 47.5625 5.09375 
Q 40.234375 -1.421875 26.90625 -1.421875 
Q 22.3125 -1.421875 17.546875 -0.640625 
Q 12.796875 0.140625 7.71875 1.703125 
L 7.71875 11.625 
Q 12.109375 9.234375 16.796875 8.0625 
Q 21.484375 6.890625 26.703125 6.890625 
Q 35.15625 6.890625 40.078125 11.328125 
Q 45.015625 15.765625 45.015625 23.390625 
Q 45.015625 31 40.078125 35.4375 
Q 35.15625 39.890625 26.703125 39.890625 
Q 22.75 39.890625 18.8125 39.015625 
Q 14.890625 38.140625 10.796875 36.28125 
z
" id="DejaVuSans-35"/>
     <path d="M 60.015625 54.6875 
L 34.90625 27.875 
L 50.296875 0 
L 39.984375 0 
L 28.421875 21.6875 
L 8.296875 0 
L -2.59375 0 
L 24.3125 28.8125 
L 10.015625 54.6875 
L 20.3125 54.6875 
L 30.8125 34.90625 
L 49.125 54.6875 
z
" id="DejaVuSans-Oblique-78"/>
     <path d="M 48.09375 32.234375 
Q 48.25 33.015625 48.3125 33.84375 
Q 48.390625 34.671875 48.390625 35.5 
Q 48.390625 41.453125 44.890625 44.921875 
Q 41.40625 48.390625 35.40625 48.390625 
Q 28.71875 48.390625 23.578125 44.15625 
Q 18.453125 39.9375 15.828125 32.171875 
z
M 55.90625 25.203125 
L 14.109375 25.203125 
Q 13.8125 23.34375 13.71875 22.265625 
Q 13.625 21.1875 13.625 20.40625 
Q 13.625 13.625 17.796875 9.90625 
Q 21.96875 6.203125 29.59375 6.203125 
Q 35.453125 6.203125 40.671875 7.515625 
Q 45.90625 8.84375 50.390625 11.375 
L 48.6875 2.484375 
Q 43.84375 0.53125 38.6875 -0.4375 
Q 33.546875 -1.421875 28.21875 -1.421875 
Q 16.84375 -1.421875 10.71875 4.015625 
Q 4.59375 9.46875 4.59375 19.484375 
Q 4.59375 28.03125 7.640625 35.375 
Q 10.6875 42.71875 16.609375 48.484375 
Q 20.40625 52.09375 25.65625 54.046875 
Q 30.90625 56 36.8125 56 
Q 46.09375 56 51.578125 50.4375 
Q 57.078125 44.875 57.078125 35.5 
Q 57.078125 33.25 56.78125 30.6875 
Q 56.5 28.125 55.90625 25.203125 
z
" id="DejaVuSans-Oblique-65"/>
     <path d="M 25.390625 72.90625 
L 33.6875 72.90625 
L 8.296875 -9.28125 
L 0 -9.28125 
z
" id="DejaVuSans-2f"/>
    </defs>
    <g transform="translate(320.912727 37.2)scale(0.24 -0.24)">
     <use transform="translate(0 0.554688)" xlink:href="#DejaVuSans-Oblique-48"/>
     <use transform="translate(75.195312 -15.851562)scale(0.7)" xlink:href="#DejaVuSans-35"/>
     <use transform="translate(119.731445 -15.851562)scale(0.7)" xlink:href="#DejaVuSans-30"/>
     <use transform="translate(167.001953 0.554688)" xlink:href="#DejaVuSans-28"/>
     <use transform="translate(206.015625 0.554688)" xlink:href="#DejaVuSans-Oblique-78"/>
     <use transform="translate(265.195312 0.554688)" xlink:href="#DejaVuSans-29"/>
     <use transform="translate(304.208984 0.554688)" xlink:href="#DejaVuSans-Oblique-65"/>
     <use transform="translate(370.382318 38.835938)scale(0.7)" xlink:href="#DejaVuSans-2212"/>
     <use transform="translate(429.034661 38.835938)scale(0.7)" xlink:href="#DejaVuSans-Oblique-78"/>
     <use transform="translate(473.586745 65.632812)scale(0.49)" xlink:href="#DejaVuSans-32"/>
     <use transform="translate(506.6761 38.835938)scale(0.7)" xlink:href="#DejaVuSans-2f"/>
     <use transform="translate(530.227272 38.835938)scale(0.7)" xlink:href="#DejaVuSans-32"/>
    </g>
   </g>
  </g>
  <g id="axes_2">
   <g id="patch_7">
    <path d="M 709.854545 315 
L 1166.4 315 
L 1166.4 43.2 
L 709.854545 43.2 
z
" style="fill:#ffffff;"/>
   </g>
   <g id="PathCollection_1">
    <defs>
     <path d="M 0 4.472136 
C 1.186024 4.472136 2.323632 4.000923 3.162278 3.162278 
C 4.000923 2.323632 4.472136 1.186024 4.472136 0 
C 4.472136 -1.186024 4.000923 -2.323632 3.162278 -3.162278 
C 2.323632 -4.000923 1.186024 -4.472136 0 -4.472136 
C -1.186024 -4.472136 -2.323632 -4.000923 -3.162278 -3.162278 
C -4.000923 -2.323632 -4.472136 -1.186024 -4.472136 0 
C -4.472136 1.186024 -4.000923 2.323632 -3.162278 3.162278 
C -2.323632 4.000923 -1.186024 4.472136 0 4.472136 
z
" id="m0b1099d29b" style="stroke:#1f77b4;"/>
    </defs>
    <g clip-path="url(#p5468945364)">
     <use style="fill:#1f77b4;stroke:#1f77b4;" x="1001.413225" xlink:href="#m0b1099d29b" y="200.758007"/>
     <use style="fill:#1f77b4;stroke:#1f77b4;" x="1144.861385" xlink:href="#m0b1099d29b" y="186.172488"/>
     <use style="fill:#1f77b4;stroke:#1f77b4;" x="942.748152" xlink:href="#m0b1099d29b" y="90.43954"/>
     <use style="fill:#1f77b4;stroke:#1f77b4;" x="1053.247434" xlink:href="#m0b1099d29b" y="197.033245"/>
     <use style="fill:#1f77b4;stroke:#1f77b4;" x="1134.012365" xlink:href="#m0b1099d29b" y="186.007579"/>
     <use style="fill:#1f77b4;stroke:#1f77b4;" x="1074.54366" xlink:href="#m0b1099d29b" y="191.893253"/>
     <use style="fill:#1f77b4;stroke:#1f77b4;" x="731.39316" xlink:href="#m0b1099d29b" y="177.921814"/>
     <use style="fill:#1f77b4;stroke:#1f77b4;" x="887.297603" xlink:href="#m0b1099d29b" y="56.711288"/>
     <use style="fill:#1f77b4;stroke:#1f77b4;" x="790.861865" xlink:href="#m0b1099d29b" y="151.442893"/>
     <use style="fill:#1f77b4;stroke:#1f77b4;" x="855.554172" xlink:href="#m0b1099d29b" y="264.903365"/>
     <use style="fill:#1f77b4;stroke:#1f77b4;" x="830.641607" xlink:href="#m0b1099d29b" y="127.10284"/>
     <use style="fill:#1f77b4;stroke:#1f77b4;" x="788.450972" xlink:href="#m0b1099d29b" y="147.554684"/>
     <use style="fill:#1f77b4;stroke:#1f77b4;" x="971.277058" xlink:href="#m0b1099d29b" y="233.068726"/>
     <use style="fill:#1f77b4;stroke:#1f77b4;" x="1125.574238" xlink:href="#m0b1099d29b" y="189.217565"/>
     <use style="fill:#1f77b4;stroke:#1f77b4;" x="1075.749107" xlink:href="#m0b1099d29b" y="189.232898"/>
     <use style="fill:#1f77b4;stroke:#1f77b4;" x="857.965066" xlink:href="#m0b1099d29b" y="285.850965"/>
     <use style="fill:#1f77b4;stroke:#1f77b4;" x="1094.634438" xlink:href="#m0b1099d29b" y="179.814845"/>
     <use style="fill:#1f77b4;stroke:#1f77b4;" x="898.146623" xlink:href="#m0b1099d29b" y="165.853073"/>
     <use style="fill:#1f77b4;stroke:#1f77b4;" x="837.874287" xlink:href="#m0b1099d29b" y="98.989355"/>
     <use style="fill:#1f77b4;stroke:#1f77b4;" x="961.231668" xlink:href="#m0b1099d29b" y="301.488712"/>
     <use style="fill:#1f77b4;stroke:#1f77b4;" x="1031.147578" xlink:href="#m0b1099d29b" y="157.646971"/>
     <use style="fill:#1f77b4;stroke:#1f77b4;" x="976.902476" xlink:href="#m0b1099d29b" y="162.497786"/>
     <use style="fill:#1f77b4;stroke:#1f77b4;" x="969.26798" xlink:href="#m0b1099d29b" y="256.461224"/>
     <use style="fill:#1f77b4;stroke:#1f77b4;" x="937.524549" xlink:href="#m0b1099d29b" y="57.135325"/>
    </g>
   </g>
   <g id="matplotlib.axis_3">
    <g id="xtick_8">
     <g id="line2d_26">
      <path clip-path="url(#p5468945364)" d="M 751.41697 315 
L 751.41697 43.2 
" style="fill:none;stroke:#b0b0b0;stroke-linecap:square;stroke-width:0.8;"/>
     </g>
     <g id="line2d_27">
      <g>
       <use style="stroke:#000000;stroke-width:0.8;" x="751.41697" xlink:href="#ma0e6cf512a" y="315"/>
      </g>
     </g>
     <g id="text_16">
      <!-- −2 -->
      <g transform="translate(736.674782 337.196875)scale(0.2 -0.2)">
       <use xlink:href="#DejaVuSans-2212"/>
       <use x="83.789062" xlink:href="#DejaVuSans-32"/>
      </g>
     </g>
    </g>
    <g id="xtick_9">
     <g id="line2d_28">
      <path clip-path="url(#p5468945364)" d="M 831.713115 315 
L 831.713115 43.2 
" style="fill:none;stroke:#b0b0b0;stroke-linecap:square;stroke-width:0.8;"/>
     </g>
     <g id="line2d_29">
      <g>
       <use style="stroke:#000000;stroke-width:0.8;" x="831.713115" xlink:href="#ma0e6cf512a" y="315"/>
      </g>
     </g>
     <g id="text_17">
      <!-- −1 -->
      <g transform="translate(816.970928 337.196875)scale(0.2 -0.2)">
       <use xlink:href="#DejaVuSans-2212"/>
       <use x="83.789062" xlink:href="#DejaVuSans-31"/>
      </g>
     </g>
    </g>
    <g id="xtick_10">
     <g id="line2d_30">
      <path clip-path="url(#p5468945364)" d="M 912.00926 315 
L 912.00926 43.2 
" style="fill:none;stroke:#b0b0b0;stroke-linecap:square;stroke-width:0.8;"/>
     </g>
     <g id="line2d_31">
      <g>
       <use style="stroke:#000000;stroke-width:0.8;" x="912.00926" xlink:href="#ma0e6cf512a" y="315"/>
      </g>
     </g>
     <g id="text_18">
      <!-- 0 -->
      <g transform="translate(905.64676 337.196875)scale(0.2 -0.2)">
       <use xlink:href="#DejaVuSans-30"/>
      </g>
     </g>
    </g>
    <g id="xtick_11">
     <g id="line2d_32">
      <path clip-path="url(#p5468945364)" d="M 992.305406 315 
L 992.305406 43.2 
" style="fill:none;stroke:#b0b0b0;stroke-linecap:square;stroke-width:0.8;"/>
     </g>
     <g id="line2d_33">
      <g>
       <use style="stroke:#000000;stroke-width:0.8;" x="992.305406" xlink:href="#ma0e6cf512a" y="315"/>
      </g>
     </g>
     <g id="text_19">
      <!-- 1 -->
      <g transform="translate(985.942906 337.196875)scale(0.2 -0.2)">
       <use xlink:href="#DejaVuSans-31"/>
      </g>
     </g>
    </g>
    <g id="xtick_12">
     <g id="line2d_34">
      <path clip-path="url(#p5468945364)" d="M 1072.601551 315 
L 1072.601551 43.2 
" style="fill:none;stroke:#b0b0b0;stroke-linecap:square;stroke-width:0.8;"/>
     </g>
     <g id="line2d_35">
      <g>
       <use style="stroke:#000000;stroke-width:0.8;" x="1072.601551" xlink:href="#ma0e6cf512a" y="315"/>
      </g>
     </g>
     <g id="text_20">
      <!-- 2 -->
      <g transform="translate(1066.239051 337.196875)scale(0.2 -0.2)">
       <use xlink:href="#DejaVuSans-32"/>
      </g>
     </g>
    </g>
    <g id="xtick_13">
     <g id="line2d_36">
      <path clip-path="url(#p5468945364)" d="M 1152.897697 315 
L 1152.897697 43.2 
" style="fill:none;stroke:#b0b0b0;stroke-linecap:square;stroke-width:0.8;"/>
     </g>
     <g id="line2d_37">
      <g>
       <use style="stroke:#000000;stroke-width:0.8;" x="1152.897697" xlink:href="#ma0e6cf512a" y="315"/>
      </g>
     </g>
     <g id="text_21">
      <!-- 3 -->
      <g transform="translate(1146.535197 337.196875)scale(0.2 -0.2)">
       <use xlink:href="#DejaVuSans-33"/>
      </g>
     </g>
    </g>
    <g id="text_22">
     <!-- x -->
     <g transform="translate(933.392273 357.51375)scale(0.16 -0.16)">
      <use xlink:href="#DejaVuSans-78"/>
     </g>
    </g>
   </g>
   <g id="matplotlib.axis_4">
    <g id="ytick_6">
     <g id="line2d_38">
      <path clip-path="url(#p5468945364)" d="M 709.854545 258.35843 
L 1166.4 258.35843 
" style="fill:none;stroke:#b0b0b0;stroke-linecap:square;stroke-width:0.8;"/>
     </g>
     <g id="line2d_39">
      <g>
       <use style="stroke:#000000;stroke-width:0.8;" x="709.854545" xlink:href="#m047f238047" y="258.35843"/>
      </g>
     </g>
     <g id="text_23">
      <!-- −1 -->
      <g transform="translate(673.37017 265.956867)scale(0.2 -0.2)">
       <use xlink:href="#DejaVuSans-2212"/>
       <use x="83.789062" xlink:href="#DejaVuSans-31"/>
      </g>
     </g>
    </g>
    <g id="ytick_7">
     <g id="line2d_40">
      <path clip-path="url(#p5468945364)" d="M 709.854545 188.055839 
L 1166.4 188.055839 
" style="fill:none;stroke:#b0b0b0;stroke-linecap:square;stroke-width:0.8;"/>
     </g>
     <g id="line2d_41">
      <g>
       <use style="stroke:#000000;stroke-width:0.8;" x="709.854545" xlink:href="#m047f238047" y="188.055839"/>
      </g>
     </g>
     <g id="text_24">
      <!-- 0 -->
      <g transform="translate(690.129545 195.654276)scale(0.2 -0.2)">
       <use xlink:href="#DejaVuSans-30"/>
      </g>
     </g>
    </g>
    <g id="ytick_8">
     <g id="line2d_42">
      <path clip-path="url(#p5468945364)" d="M 709.854545 117.753248 
L 1166.4 117.753248 
" style="fill:none;stroke:#b0b0b0;stroke-linecap:square;stroke-width:0.8;"/>
     </g>
     <g id="line2d_43">
      <g>
       <use style="stroke:#000000;stroke-width:0.8;" x="709.854545" xlink:href="#m047f238047" y="117.753248"/>
      </g>
     </g>
     <g id="text_25">
      <!-- 1 -->
      <g transform="translate(690.129545 125.351686)scale(0.2 -0.2)">
       <use xlink:href="#DejaVuSans-31"/>
      </g>
     </g>
    </g>
    <g id="ytick_9">
     <g id="line2d_44">
      <path clip-path="url(#p5468945364)" d="M 709.854545 47.450657 
L 1166.4 47.450657 
" style="fill:none;stroke:#b0b0b0;stroke-linecap:square;stroke-width:0.8;"/>
     </g>
     <g id="line2d_45">
      <g>
       <use style="stroke:#000000;stroke-width:0.8;" x="709.854545" xlink:href="#m047f238047" y="47.450657"/>
      </g>
     </g>
     <g id="text_26">
      <!-- 2 -->
      <g transform="translate(690.129545 55.049095)scale(0.2 -0.2)">
       <use xlink:href="#DejaVuSans-32"/>
      </g>
     </g>
    </g>
    <g id="text_27">
     <!-- y(x) -->
     <g transform="translate(666.04267 194.8125)rotate(-90)scale(0.16 -0.16)">
      <use xlink:href="#DejaVuSans-79"/>
      <use x="59.179688" xlink:href="#DejaVuSans-28"/>
      <use x="98.193359" xlink:href="#DejaVuSans-78"/>
      <use x="157.373047" xlink:href="#DejaVuSans-29"/>
     </g>
    </g>
   </g>
   <g id="patch_8">
    <path d="M 709.854545 315 
L 709.854545 43.2 
" style="fill:none;stroke:#000000;stroke-linecap:square;stroke-linejoin:miter;stroke-width:0.8;"/>
   </g>
   <g id="patch_9">
    <path d="M 1166.4 315 
L 1166.4 43.2 
" style="fill:none;stroke:#000000;stroke-linecap:square;stroke-linejoin:miter;stroke-width:0.8;"/>
   </g>
   <g id="patch_10">
    <path d="M 709.854545 315 
L 1166.4 315 
" style="fill:none;stroke:#000000;stroke-linecap:square;stroke-linejoin:miter;stroke-width:0.8;"/>
   </g>
   <g id="patch_11">
    <path d="M 709.854545 43.2 
L 1166.4 43.2 
" style="fill:none;stroke:#000000;stroke-linecap:square;stroke-linejoin:miter;stroke-width:0.8;"/>
   </g>
   <g id="text_28">
    <!-- Training Data -->
    <defs>
     <path d="M -0.296875 72.90625 
L 61.375 72.90625 
L 61.375 64.59375 
L 35.5 64.59375 
L 35.5 0 
L 25.59375 0 
L 25.59375 64.59375 
L -0.296875 64.59375 
z
" id="DejaVuSans-54"/>
     <path d="M 41.109375 46.296875 
Q 39.59375 47.171875 37.8125 47.578125 
Q 36.03125 48 33.890625 48 
Q 26.265625 48 22.1875 43.046875 
Q 18.109375 38.09375 18.109375 28.8125 
L 18.109375 0 
L 9.078125 0 
L 9.078125 54.6875 
L 18.109375 54.6875 
L 18.109375 46.1875 
Q 20.953125 51.171875 25.484375 53.578125 
Q 30.03125 56 36.53125 56 
Q 37.453125 56 38.578125 55.875 
Q 39.703125 55.765625 41.0625 55.515625 
z
" id="DejaVuSans-72"/>
     <path d="M 34.28125 27.484375 
Q 23.390625 27.484375 19.1875 25 
Q 14.984375 22.515625 14.984375 16.5 
Q 14.984375 11.71875 18.140625 8.90625 
Q 21.296875 6.109375 26.703125 6.109375 
Q 34.1875 6.109375 38.703125 11.40625 
Q 43.21875 16.703125 43.21875 25.484375 
L 43.21875 27.484375 
z
M 52.203125 31.203125 
L 52.203125 0 
L 43.21875 0 
L 43.21875 8.296875 
Q 40.140625 3.328125 35.546875 0.953125 
Q 30.953125 -1.421875 24.3125 -1.421875 
Q 15.921875 -1.421875 10.953125 3.296875 
Q 6 8.015625 6 15.921875 
Q 6 25.140625 12.171875 29.828125 
Q 18.359375 34.515625 30.609375 34.515625 
L 43.21875 34.515625 
L 43.21875 35.40625 
Q 43.21875 41.609375 39.140625 45 
Q 35.0625 48.390625 27.6875 48.390625 
Q 23 48.390625 18.546875 47.265625 
Q 14.109375 46.140625 10.015625 43.890625 
L 10.015625 52.203125 
Q 14.9375 54.109375 19.578125 55.046875 
Q 24.21875 56 28.609375 56 
Q 40.484375 56 46.34375 49.84375 
Q 52.203125 43.703125 52.203125 31.203125 
z
" id="DejaVuSans-61"/>
     <path d="M 9.421875 54.6875 
L 18.40625 54.6875 
L 18.40625 0 
L 9.421875 0 
z
M 9.421875 75.984375 
L 18.40625 75.984375 
L 18.40625 64.59375 
L 9.421875 64.59375 
z
" id="DejaVuSans-69"/>
     <path d="M 54.890625 33.015625 
L 54.890625 0 
L 45.90625 0 
L 45.90625 32.71875 
Q 45.90625 40.484375 42.875 44.328125 
Q 39.84375 48.1875 33.796875 48.1875 
Q 26.515625 48.1875 22.3125 43.546875 
Q 18.109375 38.921875 18.109375 30.90625 
L 18.109375 0 
L 9.078125 0 
L 9.078125 54.6875 
L 18.109375 54.6875 
L 18.109375 46.1875 
Q 21.34375 51.125 25.703125 53.5625 
Q 30.078125 56 35.796875 56 
Q 45.21875 56 50.046875 50.171875 
Q 54.890625 44.34375 54.890625 33.015625 
z
" id="DejaVuSans-6e"/>
     <path d="M 45.40625 27.984375 
Q 45.40625 37.75 41.375 43.109375 
Q 37.359375 48.484375 30.078125 48.484375 
Q 22.859375 48.484375 18.828125 43.109375 
Q 14.796875 37.75 14.796875 27.984375 
Q 14.796875 18.265625 18.828125 12.890625 
Q 22.859375 7.515625 30.078125 7.515625 
Q 37.359375 7.515625 41.375 12.890625 
Q 45.40625 18.265625 45.40625 27.984375 
z
M 54.390625 6.78125 
Q 54.390625 -7.171875 48.1875 -13.984375 
Q 42 -20.796875 29.203125 -20.796875 
Q 24.46875 -20.796875 20.265625 -20.09375 
Q 16.0625 -19.390625 12.109375 -17.921875 
L 12.109375 -9.1875 
Q 16.0625 -11.328125 19.921875 -12.34375 
Q 23.78125 -13.375 27.78125 -13.375 
Q 36.625 -13.375 41.015625 -8.765625 
Q 45.40625 -4.15625 45.40625 5.171875 
L 45.40625 9.625 
Q 42.625 4.78125 38.28125 2.390625 
Q 33.9375 0 27.875 0 
Q 17.828125 0 11.671875 7.65625 
Q 5.515625 15.328125 5.515625 27.984375 
Q 5.515625 40.671875 11.671875 48.328125 
Q 17.828125 56 27.875 56 
Q 33.9375 56 38.28125 53.609375 
Q 42.625 51.21875 45.40625 46.390625 
L 45.40625 54.6875 
L 54.390625 54.6875 
z
" id="DejaVuSans-67"/>
     <path id="DejaVuSans-20"/>
     <path d="M 19.671875 64.796875 
L 19.671875 8.109375 
L 31.59375 8.109375 
Q 46.6875 8.109375 53.6875 14.9375 
Q 60.6875 21.78125 60.6875 36.53125 
Q 60.6875 51.171875 53.6875 57.984375 
Q 46.6875 64.796875 31.59375 64.796875 
z
M 9.8125 72.90625 
L 30.078125 72.90625 
Q 51.265625 72.90625 61.171875 64.09375 
Q 71.09375 55.28125 71.09375 36.53125 
Q 71.09375 17.671875 61.125 8.828125 
Q 51.171875 0 30.078125 0 
L 9.8125 0 
z
" id="DejaVuSans-44"/>
     <path d="M 18.3125 70.21875 
L 18.3125 54.6875 
L 36.8125 54.6875 
L 36.8125 47.703125 
L 18.3125 47.703125 
L 18.3125 18.015625 
Q 18.3125 11.328125 20.140625 9.421875 
Q 21.96875 7.515625 27.59375 7.515625 
L 36.8125 7.515625 
L 36.8125 0 
L 27.59375 0 
Q 17.1875 0 13.234375 3.875 
Q 9.28125 7.765625 9.28125 18.015625 
L 9.28125 47.703125 
L 2.6875 47.703125 
L 2.6875 54.6875 
L 9.28125 54.6875 
L 9.28125 70.21875 
z
" id="DejaVuSans-74"/>
    </defs>
    <g transform="translate(856.576023 37.2)scale(0.24 -0.24)">
     <use xlink:href="#DejaVuSans-54"/>
     <use x="60.865234" xlink:href="#DejaVuSans-72"/>
     <use x="101.978516" xlink:href="#DejaVuSans-61"/>
     <use x="163.257812" xlink:href="#DejaVuSans-69"/>
     <use x="191.041016" xlink:href="#DejaVuSans-6e"/>
     <use x="254.419922" xlink:href="#DejaVuSans-69"/>
     <use x="282.203125" xlink:href="#DejaVuSans-6e"/>
     <use x="345.582031" xlink:href="#DejaVuSans-67"/>
     <use x="409.058594" xlink:href="#DejaVuSans-20"/>
     <use x="440.845703" xlink:href="#DejaVuSans-44"/>
     <use x="517.847656" xlink:href="#DejaVuSans-61"/>
     <use x="579.126953" xlink:href="#DejaVuSans-74"/>
     <use x="618.335938" xlink:href="#DejaVuSans-61"/>
    </g>
   </g>
  </g>
 </g>
 <defs>
  <clipPath id="p30c53efc9c">
   <rect height="271.8" width="456.545455" x="162" y="43.2"/>
  </clipPath>
  <clipPath id="p5468945364">
   <rect height="271.8" width="456.545455" x="709.854545" y="43.2"/>
  </clipPath>
 </defs>
</svg>
